<?xml version="1.0" encoding="utf-8"?>
<!-- Generator: Adobe Illustrator 13.0.0, SVG Export Plug-In . SVG Version: 6.00 Build 14948)  -->
<!DOCTYPE svg PUBLIC "-//W3C//DTD SVG 1.1//EN" "http://www.w3.org/Graphics/SVG/1.1/DTD/svg11.dtd">
<svg version="1.1" id="Layer_1" xmlns="http://www.w3.org/2000/svg" xmlns:xlink="http://www.w3.org/1999/xlink" x="0px" y="0px"
	 width="400px" height="400px" viewBox="0 0 400 400" enable-background="new 0 0 400 400" xml:space="preserve">
<path fill="#AABBCC" d="M394,121.333c0,3.3-2.7,6-6,6H278.667c-3.3,0-6-2.7-6-6V12c0-3.3,2.7-6,6-6H388c3.3,0,6,2.7,6,6V121.333z"/>
<path fill="#AABBCC" d="M394,254.667c0,3.3-2.7,6-6,6H278.667c-3.3,0-6-2.7-6-6V145.334c0-3.3,2.7-6,6-6H388c3.3,0,6,2.7,6,6		V254.667z"/>
<path fill="#AABBCC" d="M394,388c0,3.3-2.7,6-6,6H278.667c-3.3,0-6-2.7-6-6V278.667c0-3.3,2.7-6,6-6H388c3.3,0,6,2.7,6,6V388z"/>
<path fill="#AABBCC" d="M260.667,388c0,3.3-2.7,6-6,6H145.334c-3.3,0-6-2.7-6-6V278.667c0-3.3,2.7-6,6-6h109.333c3.3,0,6,2.7,6,6		V388z"/>
<path fill="#AABBCC" d="M127.333,388c0,3.3-2.7,6-6,6H12c-3.3,0-6-2.7-6-6V278.667c0-3.3,2.7-6,6-6h109.334c3.3,0,6,2.7,6,6V388z"		/>
<path fill="#AABBCC" d="M127.333,254.667c0,3.3-2.7,6-6,6H12c-3.3,0-6-2.7-6-6V145.334c0-3.3,2.7-6,6-6h109.333c3.3,0,6,2.7,6,6		V254.667z"/>
<path fill="#AABBCC" d="M127.334,121.332c0,3.3-2.7,6-6,6H12c-3.3,0-6-2.7-6-6V12c0-3.3,2.7-6,6-6h109.334c3.3,0,6,2.7,6,6V121.332z"/>
<path fill="#AABBCC" d="M260.667,121.333c0,3.3-2.7,6-6,6H145.334c-3.3,0-6-2.7-6-6V12c0-3.3,2.7-6,6-6h109.333c3.3,0,6,2.7,6,6		V121.333z"/>
<path fill="#AABBCC" d="M260.667,254.667c0,3.3-2.7,6-6,6H145.334c-3.3,0-6-2.7-6-6V145.334c0-3.3,2.7-6,6-6h109.333		c3.3,0,6,2.7,6,6V254.667z"/>
</svg>
