<?xml version="1.0" encoding="utf-8"?>
<!-- Generator: Adobe Illustrator 13.0.0, SVG Export Plug-In . SVG Version: 6.00 Build 14948)  -->
<!DOCTYPE svg PUBLIC "-//W3C//DTD SVG 1.1//EN" "http://www.w3.org/Graphics/SVG/1.1/DTD/svg11.dtd">
<svg version="1.1" id="Layer_3" xmlns="http://www.w3.org/2000/svg" xmlns:xlink="http://www.w3.org/1999/xlink" x="0px" y="0px"
	 width="400px" height="400px" viewBox="0 0 400 400" enable-background="new 0 0 400 400" xml:space="preserve">
<path fill="#AABBCC"  d="M344.861,226.708c-30.19-2.425-57.581-10.704-85.172-25.845		c29.687-15.695,60.139-24.185,92.664-25.868v51.279C349.864,226.384,347.362,226.528,344.861,226.708L344.861,226.708z"/>
<path fill="#AABBCC"  d="M352.354,294.535c-14.096-0.377-26.771-2.234-42.37-6.134		c-16.688-4.168-32.981-10.497-48.581-18.863c5.958-4.035,12.515-7.676,19.595-10.871c20.088-9.075,40.387-14.138,63.826-15.914		c2.531,0.189,5.048,0.342,7.53,0.455V294.535L352.354,294.535z"/>
<path fill="#AABBCC"  d="M352.354,387.999H333.5h-56.463c-1.215-37.531-11.081-71.594-30.726-106.148		c0.156-0.152,0.309-0.305,0.463-0.454c0.363-0.354,0.73-0.708,1.106-1.061c18.551,10.639,38.109,18.564,58.224,23.59		c16.729,4.18,30.884,6.221,46.25,6.613V387.999L352.354,387.999z"/>
<path fill="#AABBCC"  d="M261.026,387.999h-54.693c0.238-4.205,0.718-9.103,1.618-17.769		c3.776-30.193,13.137-56,27.258-75.399C251.563,325.151,259.877,355.18,261.026,387.999L261.026,387.999z"/>
<path fill="#AABBCC"  d="M193.403,387.999h-55.9c1.189-33.297,9.891-63.702,27.03-94.362		c17.813,24.313,24.824,54.517,27.527,76.681C192.845,377.257,193.24,382.174,193.403,387.999L193.403,387.999z"/>
<path fill="#AABBCC"  d="M121.492,387.999h-60.9H47.647v-77.614c14.506-0.49,27.714-2.398,43.752-6.235		c21.107-5.05,41.663-13.186,61.191-24.207c0.292,0.279,0.582,0.558,0.867,0.837C133.01,315.608,122.743,350.02,121.492,387.999		L121.492,387.999z"/>
<path fill="#AABBCC"  d="M47.646,294.372v-52.213c25.999,0.926,49.174,6.004,70.632,15.455		c7.564,3.33,14.535,7.167,20.833,11.461c-16.537,8.743-33.791,15.29-51.435,19.515C72.962,292.111,60.844,293.887,47.646,294.372		L47.646,294.372z"/>
<path fill="#AABBCC"  d="M246.33,260.685c-11.702-7.495-23.136-16.289-34.12-26.241		c1.729-1.701,3.432-3.415,5.1-5.131c7.651-6.459,15.873-12.514,24.438-17.997c0.653-0.418,1.283-0.819,1.895-1.203		c18.341,10.894,36.898,19.044,55.983,24.553c-8.544,2.535-16.893,5.66-25.213,9.418		C264.028,248.772,254.609,254.345,246.33,260.685L246.33,260.685z"/>
<path fill="#AABBCC"  d="M200.082,330.703c-6.178-20.149-15.176-37.641-26.692-51.753		c7.24-11.095,15.513-21.615,24.648-31.345c0.683-0.594,1.372-1.203,2.073-1.826c9.862,10.504,18.711,21.941,26.405,34.131		C215.153,293.849,206.245,311.011,200.082,330.703L200.082,330.703z"/>
<path fill="#AABBCC"  d="M154.271,260.323c-8.652-6.694-18.564-12.518-29.544-17.351		c-8.877-3.911-18.011-7.134-27.458-9.679c19.893-5.352,39.208-13.409,58.227-24.251c0.857,0.539,1.698,1.074,2.527,1.608		c10.809,6.99,21.054,14.938,30.547,23.693c-0.545,0.566-1.089,1.137-1.63,1.707C176.475,245.127,165.507,253.273,154.271,260.323		L154.271,260.323z"/>
<path fill="#AABBCC"  d="M47.646,224.998v-50.151c32.117,1.258,62.266,9.433,91.587,24.846		C109.914,214.993,79.762,223.319,47.646,224.998L47.646,224.998z"/>
<path fill="#AABBCC"  d="M47.646,157.712v-52.194c15.039,0.327,28.762,2.337,45.007,6.542		c15.83,4.098,31.364,10.186,46.318,18.14c-5.609,3.831-11.75,7.309-18.362,10.392C98.719,150.8,74.779,156.426,47.646,157.712		L47.646,157.712z"/>
<path fill="#AABBCC"  d="M152.446,119.355c-17.877-10.166-36.617-17.822-55.783-22.784		c-17.643-4.566-32.567-6.731-49.018-7.058V12h17.821h59.393c0.873,37.258,10.294,71.163,29.331,105.649		c-0.323,0.325-0.646,0.643-0.966,0.956C152.968,118.855,152.709,119.104,152.446,119.355L152.446,119.355z"/>
<path fill="#AABBCC"  d="M165.342,104.598C149.579,74.392,141.695,44.541,140.865,12h53.079		c-0.188,4.793-0.516,9.135-0.997,13.305l-0.012,0.105l-0.008,0.105C190.101,57.435,181.048,83.432,165.342,104.598L165.342,104.598		z"/>
<path fill="#AABBCC"  d="M235.849,105.658c-15.585-21.305-24.434-47.621-26.978-80.062		c-0.313-3.876-0.647-7.077-0.975-10.173c-0.12-1.153-0.239-2.288-0.354-3.424h54.956C261.316,45.015,252.736,75.2,235.849,105.658		L235.849,105.658z"/>
<path fill="#AABBCC"  d="M247.919,119.769c-0.364-0.358-0.724-0.717-1.079-1.075		C267.092,83.995,277.261,49.757,278.508,12h57.901h15.944v77.616c-14.51,0.488-27.713,2.395-43.755,6.234		C287.676,100.857,267.289,108.893,247.919,119.769L247.919,119.769z"/>
<path fill="#AABBCC"  d="M352.354,158.846c-25.96-1.218-49.057-6.588-70.55-16.397		c-7.491-3.417-14.386-7.331-20.604-11.692c16.435-8.656,33.583-15.15,51.123-19.345c14.714-3.522,26.833-5.298,40.03-5.784V158.846		L352.354,158.846z"/>
<path fill="#AABBCC"  d="M155.531,190.404c-19.005-10.94-38.314-19.003-58.192-24.262		c10.405-2.877,20.392-6.555,30.032-11.049c9.842-4.588,18.799-9.991,26.706-16.098c11.343,7.188,22.419,15.557,32.998,24.926		c0.377,0.417,0.751,0.83,1.123,1.234c-1.866,1.831-3.705,3.678-5.504,5.529c-7.328,6.187-15.197,12.015-23.401,17.33		C157.993,188.854,156.744,189.649,155.531,190.404L155.531,190.404z"/>
<path fill="#AABBCC"  d="M200.055,154.074c-0.57-0.519-1.13-1.022-1.683-1.516		c-9.138-10.185-17.367-21.227-24.513-32.888c11.815-14.431,20.762-31.256,26.776-50.313c5.83,19.392,14.645,36.464,26.385,51.053		c-7.346,11.338-15.754,22.074-25.052,31.978C201.341,152.936,200.704,153.495,200.055,154.074L200.055,154.074z"/>
<path fill="#AABBCC"  d="M243.776,191.373c-0.724-0.467-1.457-0.95-2.208-1.448		c-7.741-5.143-15.27-10.855-22.38-16.978c-2.433-2.603-4.905-5.166-7.396-7.666c0.418-0.438,0.841-0.881,1.268-1.333		c10.586-9.179,21.677-17.404,33.036-24.502c8.5,6.73,18.251,12.625,29.062,17.56c8.675,3.959,17.575,7.251,26.771,9.896		C282.068,172.32,262.787,180.444,243.776,191.373L243.776,191.373z"/>
<path fill="#AABBCC"  d="M200.613,223.407l-0.423-0.411l-0.162,0.153c-9.206-8.55-19.08-16.389-29.468-23.393		c7.947-5.289,15.594-11.036,22.769-17.111c2.158-1.826,4.317-3.725,6.461-5.679c2.794,2.656,5.676,5.268,8.615,7.807		c6.515,5.633,13.38,10.955,20.453,15.858c-7.739,5.181-15.184,10.791-22.186,16.723l-0.301,0.253l-0.274,0.282		C204.304,219.74,202.472,221.583,200.613,223.407L200.613,223.407z"/>
</svg>
