<?xml version="1.0" encoding="utf-8"?>
<!-- Generator: Adobe Illustrator 13.0.0, SVG Export Plug-In . SVG Version: 6.00 Build 14948)  -->
<!DOCTYPE svg PUBLIC "-//W3C//DTD SVG 1.0//EN" "http://www.w3.org/TR/2001/REC-SVG-20010904/DTD/svg10.dtd">
<svg version="1.0" id="Layer_2" xmlns="http://www.w3.org/2000/svg" xmlns:xlink="http://www.w3.org/1999/xlink" x="0px" y="0px"
	 width="400px" height="400px" viewBox="0 0 400 400" enable-background="new 0 0 400 400" xml:space="preserve">
<path fill="#AABBCC" d="M282.254,123.635c-1.049-0.96-2.058-1.923-3.017-2.879c-0.967-0.967-1.918-1.963-2.875-3.01
	c20.901-37.42,30.472-69.896,31.396-106.744h81.235v81.237C352.15,93.166,319.674,102.734,282.254,123.635L282.254,123.635z"/>
<path fill="#AABBCC" d="M379.517,159.708c-25.387-1.971-60.026-8.504-87.182-27.919c33.73-18.216,63.374-26.65,96.661-27.542v54.701
	c-2.237,0.104-4.097,0.272-6.603,0.502C381.532,159.529,380.589,159.615,379.517,159.708L379.517,159.708z"/>
<path fill="#AABBCC" d="M379.58,228.252c-32.04-2.829-63.461-12.555-91.505-28.251c28.044-15.7,59.472-25.422,91.511-28.253
	c0.959,0.074,1.813,0.141,2.601,0.203c2.597,0.205,4.518,0.356,6.812,0.45V227.6c-2.294,0.094-4.217,0.244-6.813,0.449
	C381.396,228.109,380.536,228.178,379.58,228.252L379.58,228.252z"/>
<path fill="#AABBCC" d="M388.996,295.752c-33.285-0.891-62.929-9.324-96.661-27.541c27.153-19.415,61.793-25.947,87.175-27.92
	c1.075,0.094,2.021,0.18,2.884,0.258c2.506,0.23,4.365,0.398,6.604,0.504L388.996,295.752L388.996,295.752z"/>
<path fill="#AABBCC" d="M388.996,388.998h-81.235c-0.927-36.846-10.495-69.322-31.394-106.744c0.954-1.045,1.918-2.054,2.879-3.018
	c0.954-0.951,1.959-1.912,3.008-2.873c37.422,20.902,69.896,30.471,106.742,31.396V388.998L388.996,388.998z"/>
<path fill="#AABBCC" d="M295.752,388.998h-54.663c-0.122-4.773-0.39-9.619-0.798-14.477c2.588-33.277,11.732-60.289,27.888-82.25
	C286.416,326.033,294.859,355.688,295.752,388.998L295.752,388.998z"/>
<path fill="#AABBCC" d="M227.565,388.998h-55.129c-0.104-4.811-0.335-9.635-0.688-14.406c2.687-30.42,11.48-57.52,28.253-86.645
	c16.77,29.133,25.563,56.232,28.251,86.646C227.901,379.357,227.671,384.182,227.565,388.998L227.565,388.998z"/>
<path fill="#AABBCC" d="M158.91,388.998h-54.663c0.893-33.309,9.336-62.965,27.576-96.725
	c16.152,21.961,25.297,48.971,27.885,82.246C159.301,379.377,159.033,384.225,158.91,388.998L158.91,388.998z"/>
<path fill="#AABBCC" d="M92.239,388.998H11.001v-81.236c36.846-0.928,69.32-10.496,106.744-31.395
	c1.049,0.958,2.056,1.918,3.014,2.877c0.954,0.956,1.915,1.961,2.875,3.01C102.734,319.676,93.166,352.152,92.239,388.998
	L92.239,388.998z"/>
<path fill="#AABBCC" d="M11,295.757v-54.704c2.233-0.104,4.091-0.271,6.594-0.502c0.866-0.078,1.814-0.164,2.893-0.259
	c25.385,1.974,60.027,8.506,87.18,27.921C73.928,286.43,44.285,294.865,11,295.757L11,295.757z"/>
<path fill="#AABBCC" d="M20.429,228.252l-2.542-0.197c-2.691-0.213-4.611-0.363-6.886-0.455v-55.2
	c2.302-0.091,4.228-0.242,6.833-0.449l2.598-0.201c32.036,2.832,63.453,12.555,91.493,28.251
	C83.882,215.695,52.462,225.419,20.429,228.252L20.429,228.252z"/>
<path fill="#AABBCC" d="M20.477,159.708c-1.063-0.094-2.004-0.178-2.858-0.256c-2.513-0.23-4.372-0.4-6.618-0.503v-54.703
	c33.289,0.891,62.928,9.324,96.665,27.542C80.51,151.207,45.861,157.739,20.477,159.708L20.477,159.708z"/>
<path fill="#AABBCC" d="M117.745,123.635C80.322,102.734,47.847,93.166,11.001,92.242V11.001h81.241
	c0.924,36.85,10.491,69.328,31.392,106.746c-0.957,1.045-1.91,2.042-2.875,3.008C119.792,121.722,118.794,122.676,117.745,123.635
	L117.745,123.635z"/>
<path fill="#AABBCC" d="M131.788,107.666C113.571,73.936,105.137,44.291,104.246,11h54.703c0.103,2.244,0.271,4.104,0.503,6.616
	c0.076,0.856,0.164,1.794,0.256,2.86C157.739,45.861,151.207,80.51,131.788,107.666L131.788,107.666z"/>
<path fill="#AABBCC" d="M200,111.927c-15.698-28.044-25.419-59.467-28.251-91.503c0.071-0.957,0.139-1.812,0.201-2.596
	c0.207-2.603,0.356-4.526,0.447-6.826H227.6c0.091,2.302,0.242,4.228,0.449,6.833c0.063,0.785,0.129,1.64,0.201,2.596
	C225.418,52.464,215.697,83.885,200,111.927L200,111.927z"/>
<path fill="#AABBCC" d="M268.213,107.665c-19.415-27.147-25.948-61.789-27.921-87.172c0.094-1.08,0.18-2.027,0.259-2.894
	c0.228-2.505,0.396-4.362,0.501-6.6h54.705C294.865,44.287,286.432,73.926,268.213,107.665L268.213,107.665z"/>
<path fill="#AABBCC" d="M232.628,156.522c-9.493-10.153-18.069-21.168-25.567-32.841c12.13-20.278,21.223-42.386,26.944-65.335
	c4.898,20.594,13.342,42.332,27.698,60.639C254.489,130.098,239.804,148.268,232.628,156.522L232.628,156.522z"/>
<path fill="#AABBCC" d="M276.319,192.942c-11.683-7.507-22.694-16.084-32.843-25.573c8.238-7.162,26.419-21.855,37.539-29.071
	c18.307,14.356,40.046,22.797,60.641,27.697C318.71,171.72,296.596,180.813,276.319,192.942L276.319,192.942z"/>
<path fill="#AABBCC" d="M281.012,261.702c-11.109-7.214-29.282-21.899-37.532-29.073c10.146-9.488,21.157-18.064,32.84-25.568
	c20.279,12.129,42.385,21.222,65.333,26.944C321.058,238.904,299.322,247.344,281.012,261.702L281.012,261.702z"/>
<path fill="#AABBCC" d="M234.038,337.923c-5.464-20.614-14.249-40.558-26.976-61.612c7.505-11.68,16.079-22.688,25.567-32.834
	c7.157,8.236,21.844,26.408,29.063,37.524C248.763,297.273,239.6,316.098,234.038,337.923L234.038,337.923z"/>
<path fill="#AABBCC" d="M165.962,337.924c-5.561-21.824-14.725-40.65-27.655-56.924c7.216-11.111,21.896-29.271,29.064-37.521
	c9.486,10.146,18.061,21.154,25.563,32.832C180.211,297.363,171.426,317.309,165.962,337.924L165.962,337.924z"/>
<path fill="#AABBCC" d="M118.986,261.702c-18.309-14.356-40.049-22.796-60.645-27.696c22.948-5.725,45.056-14.814,65.34-26.945
	c11.679,7.504,22.692,16.08,32.843,25.571C148.284,239.792,130.107,254.484,118.986,261.702L118.986,261.702z"/>
<path fill="#AABBCC" d="M123.682,192.941c-20.282-12.132-42.391-21.223-65.34-26.946c20.596-4.899,42.338-13.342,60.643-27.699
	c11.118,7.218,29.287,21.903,37.536,29.074C146.376,176.859,135.364,185.436,123.682,192.941L123.682,192.941z"/>
<path fill="#AABBCC" d="M167.368,156.523c-7.175-8.253-21.857-26.427-29.072-37.538c14.354-18.307,22.8-40.047,27.699-60.643
	c5.724,22.951,14.813,45.06,26.944,65.34C185.438,135.36,176.861,146.375,167.368,156.523L167.368,156.523z"/>
<path fill="#AABBCC" d="M200,265.223c-8.374-12.4-17.907-24.033-28.418-34.676l-2.104-2.104
	c-10.673-10.539-22.31-20.073-34.702-28.443c12.4-8.374,24.033-17.905,34.677-28.418l2.104-2.102
	c10.534-10.665,20.069-22.302,28.443-34.703c8.368,12.392,17.896,24.025,28.416,34.675l2.098,2.098
	c10.673,10.542,22.313,20.078,34.709,28.449c-12.393,8.368-24.023,17.897-34.676,28.416l-2.094,2.094
	C217.9,241.193,208.365,252.832,200,265.223L200,265.223z"/>
</svg>
