<?xml version="1.0" encoding="utf-8"?>
<!-- Generator: Adobe Illustrator 13.0.0, SVG Export Plug-In . SVG Version: 6.00 Build 14948)  -->
<!DOCTYPE svg PUBLIC "-//W3C//DTD SVG 1.1//EN" "http://www.w3.org/Graphics/SVG/1.1/DTD/svg11.dtd">
<svg version="1.1" id="Layer_2" xmlns="http://www.w3.org/2000/svg" xmlns:xlink="http://www.w3.org/1999/xlink" x="0px" y="0px"
	 width="400px" height="400px" viewBox="0 0 400 400" enable-background="new 0 0 400 400" xml:space="preserve">
	<path fill="#AABBCC" d="M135.334,204.218V200v-4.218c9.2,1.792,18.502,3.198,27.861,4.218		C153.836,201.02,144.534,202.426,135.334,204.218L135.334,204.218z"/>
	<path fill="#AABBCC" d="M5.999,254.424V200v-54.422c36.976,25.489,77.748,43.18,121.336,52.642V200v1.782		C83.753,211.242,42.981,228.934,5.999,254.424L5.999,254.424z"/>
	<path fill="#AABBCC" d="M200,163.195c-1.02-9.358-2.426-18.661-4.218-27.861H200h4.218C202.426,144.534,201.02,153.836,200,163.195		L200,163.195z"/>
	<path fill="#AABBCC" d="M201.782,127.335H200h-1.781c-9.462-43.588-27.153-84.36-52.642-121.336H200h54.424		C228.934,42.981,211.242,83.753,201.782,127.335L201.782,127.335z"/>
	<path fill="#AABBCC" d="M193.946,193.946c-18.349-0.338-36.681-2.197-54.614-5.546v-49.068H188.4		C191.749,157.265,193.608,175.597,193.946,193.946L193.946,193.946z"/>
	<path fill="#AABBCC" d="M185.928,127.333h-46.593V18.194C161.499,51.71,177.142,88.344,185.928,127.333L185.928,127.333z"/>
	<path fill="#AABBCC" d="M127.333,185.928c-38.989-8.786-75.623-24.429-109.139-46.593h109.139V185.928L127.333,185.928z"/>
	<path fill="#AABBCC" d="M393.998,254.424c-36.979-25.489-77.748-43.18-121.331-52.644V200v-1.783		c43.591-9.463,84.36-27.151,121.331-52.641V200V254.424L393.998,254.424z"/>
	<path fill="#AABBCC" d="M264.667,204.219c-9.205-1.79-18.509-3.199-27.869-4.22c9.36-1.019,18.664-2.425,27.869-4.218v4.218		V204.219L264.667,204.219z"/>
	<path fill="#AABBCC" d="M260.666,127.333h-46.595c8.788-38.988,24.431-75.627,46.595-109.139V127.333L260.666,127.333z"/>
	<path fill="#AABBCC" d="M206.056,193.942c0.336-18.338,2.196-36.672,5.545-54.609h49.065v49.068		C242.728,191.745,224.39,193.605,206.056,193.942L206.056,193.942z"/>
	<path fill="#AABBCC" d="M272.667,185.931v-46.596h109.136C348.289,161.501,311.655,177.146,272.667,185.931L272.667,185.931z"/>
	<path fill="#AABBCC" d="M204.219,264.668H200h-4.218c1.792-9.205,3.199-18.51,4.218-27.87		C201.021,246.158,202.429,255.463,204.219,264.668L204.219,264.668z"/>
	<path fill="#AABBCC" d="M254.424,393.998H200h-54.424c25.49-36.971,43.178-77.74,52.641-121.331H200h1.78		C211.244,316.25,228.935,357.019,254.424,393.998L254.424,393.998z"/>
	<path fill="#AABBCC" d="M127.332,260.668H18.195c33.51-22.164,70.148-37.808,109.137-46.596V260.668L127.332,260.668z"/>
	<path fill="#AABBCC" d="M188.399,260.668h-49.065v-49.066c17.937-3.349,36.271-5.209,54.609-5.545		C193.606,224.395,191.746,242.73,188.399,260.668L188.399,260.668z"/>
	<path fill="#AABBCC" d="M139.335,381.803V272.667h46.596C177.146,311.655,161.501,348.289,139.335,381.803L139.335,381.803z"/>
	<path fill="#AABBCC" d="M260.667,381.801c-22.165-33.512-37.81-70.146-46.596-109.134h46.596V381.801L260.667,381.801z"/>
	<path fill="#AABBCC" d="M381.801,260.667H272.667v-46.596C311.655,222.857,348.289,238.502,381.801,260.667L381.801,260.667z"/>
	<path fill="#AABBCC" d="M260.665,260.668h-49.063c-3.349-17.938-5.209-36.273-5.545-54.611c18.338,0.336,36.672,2.196,54.608,5.545		V260.668L260.665,260.668z"/>
	<path fill="#AABBCC" d="M127.334,127.334H30.647c20.898-10.06,40.186-23.703,56.562-40.086		c16.418-16.435,30.073-35.795,40.125-56.762V127.334L127.334,127.334z"/>
	<path fill="#AABBCC" d="M369.513,127.333h-96.846V30.654c10.061,20.893,23.701,40.183,40.084,56.553		C329.184,103.627,348.542,117.281,369.513,127.333L369.513,127.333z"/>
	<path fill="#AABBCC" d="M127.333,369.345c-10.061-20.892-23.703-40.184-40.087-56.553c-16.431-16.418-35.792-30.073-56.762-40.125		h96.849V369.345L127.333,369.345z"/>
	<path fill="#AABBCC" d="M272.667,369.511v-96.844h96.679c-20.892,10.061-40.183,23.701-56.555,40.084		C296.37,329.187,282.717,348.544,272.667,369.511L272.667,369.511z"/>
	<path fill="#AABBCC" d="M124.601,393.998H6V275.5c27.207,9.548,52.268,25.3,72.766,45.779		C99.255,341.754,115.026,366.798,124.601,393.998L124.601,393.998z"/>
	<path fill="#AABBCC" d="M6,124.598V6h118.501c-9.548,27.206-25.3,52.269-45.78,72.766C58.245,99.259,33.198,115.027,6,124.598		L6,124.598z"/>
	<path fill="#AABBCC" d="M393.998,124.5c-27.208-9.548-52.268-25.299-72.764-45.781C300.745,58.244,284.974,33.2,275.398,6h118.6		V124.5L393.998,124.5z"/>
	<path fill="#AABBCC" d="M393.998,393.998H275.5c9.548-27.202,25.302-52.266,45.779-72.764		c20.475-20.489,45.519-36.261,72.719-45.836V393.998L393.998,393.998z"/>
</svg>
