<?xml version="1.0" encoding="utf-8"?>
<!-- Generator: Adobe Illustrator 13.0.0, SVG Export Plug-In . SVG Version: 6.00 Build 14948)  -->
<!DOCTYPE svg PUBLIC "-//W3C//DTD SVG 1.1//EN" "http://www.w3.org/Graphics/SVG/1.1/DTD/svg11.dtd">
<svg version="1.1" id="Layer_2" xmlns="http://www.w3.org/2000/svg" xmlns:xlink="http://www.w3.org/1999/xlink" x="0px" y="0px"
	 width="400px" height="400px" viewBox="0 0 400 400" enable-background="new 0 0 400 400" xml:space="preserve">
<g>
	<path fill="#FFFFFF" d="M127.333,394H6V272.667h38.259c17.12,36.672,46.404,65.955,83.075,83.075V394L127.333,394z"/>
	<path fill="none" stroke="#000000" d="M127.333,394H6V272.667h38.259c17.12,36.672,46.404,65.955,83.075,83.075V394L127.333,394z"
		/>
</g>
<g>
	<path fill="#FFFFFF" d="M44.258,127.333H6V6h121.333v38.258C90.664,61.378,61.378,90.664,44.258,127.333L44.258,127.333z"/>
	<path fill="none" stroke="#000000" d="M44.258,127.333H6V6h121.333v38.258C90.664,61.378,61.378,90.664,44.258,127.333
		L44.258,127.333z"/>
</g>
<g>
	<path fill="#FFFFFF" d="M394,394H272.667v-38.258c36.672-17.12,65.955-46.403,83.075-83.075H394V394L394,394z"/>
	<path fill="none" stroke="#000000" d="M394,394H272.667v-38.258c36.672-17.12,65.955-46.403,83.075-83.075H394V394L394,394z"/>
</g>
<g>
	<path fill="#FFFFFF" d="M394,127.333h-38.258c-17.12-36.671-46.403-65.955-83.075-83.075V6H394V127.333L394,127.333z"/>
	<path fill="none" stroke="#000000" d="M394,127.333h-38.258c-17.12-36.671-46.403-65.955-83.075-83.075V6H394V127.333L394,127.333z"/>
</g>
<g>
	<path fill="#FFFFFF" d="M39.193,260.667H6V139.334h33.193C31.872,158.69,28.166,179.056,28.166,200
		C28.166,220.945,31.872,241.312,39.193,260.667L39.193,260.667z"/>
	<path fill="none" stroke="#000000" d="M39.193,260.667H6V139.334h33.193C31.872,158.69,28.166,179.056,28.166,200
		C28.166,220.945,31.872,241.312,39.193,260.667L39.193,260.667z"/>
</g>
<g>
	<path fill="#FFFFFF" d="M394,260.667h-33.193c7.32-19.359,11.027-39.724,11.027-60.667s-3.707-41.307-11.027-60.666H394V260.667
		L394,260.667z"/>
	<path fill="none" stroke="#000000" d="M394,260.667h-33.193c7.32-19.359,11.027-39.724,11.027-60.667s-3.707-41.307-11.027-60.666
		H394V260.667L394,260.667z"/>
</g>
<g>
	<path fill="#FFFFFF" d="M260.667,39.193C241.312,31.872,220.945,28.166,200,28.166c-20.944,0-41.31,3.706-60.665,11.027V6h121.333
		V39.193L260.667,39.193z"/>
	<path fill="none" stroke="#000000" d="M260.667,39.193C241.312,31.872,220.945,28.166,200,28.166
		c-20.944,0-41.31,3.706-60.665,11.027V6h121.333V39.193L260.667,39.193z"/>
</g>
<g>
	<path fill="#FFFFFF" d="M260.667,394H139.334v-33.193c19.359,7.32,39.723,11.027,60.666,11.027s41.307-3.707,60.667-11.027V394
		L260.667,394z"/>
	<path fill="none" stroke="#000000" d="M260.667,394H139.334v-33.193c19.359,7.32,39.723,11.027,60.666,11.027
		s41.307-3.707,60.667-11.027V394L260.667,394z"/>
</g>
<g>
	<path fill="#FFFFFF" d="M200,359.834c-25.174,0-49.958-5.934-72.237-17.231L200,290.117l72.237,52.485
		C249.958,353.9,225.175,359.834,200,359.834L200,359.834z"/>
	<path fill="none" stroke="#000000" d="M200,359.834c-25.174,0-49.958-5.934-72.237-17.231L200,290.117l72.237,52.485
		C249.958,353.9,225.175,359.834,200,359.834L200,359.834z"/>
</g>
<g>
	<path fill="#FFFFFF" d="M342.265,127.095H254.5h-1.53l-27.594-84.919C275.479,50.191,319.037,81.837,342.265,127.095
		L342.265,127.095z"/>
	<path fill="none" stroke="#000000" d="M342.265,127.095H254.5h-1.53l-27.594-84.919C275.479,50.191,319.037,81.837,342.265,127.095
		L342.265,127.095z"/>
</g>
<g>
	<path fill="#FFFFFF" d="M313.287,312.731l-27.581-84.883l72.23-52.478c1.261,8.136,1.897,16.388,1.897,24.629
		C359.834,242.297,342.977,282.873,313.287,312.731L313.287,312.731z"/>
	<path fill="none" stroke="#000000" d="M313.287,312.731l-27.581-84.883l72.23-52.478c1.261,8.136,1.897,16.388,1.897,24.629
		C359.834,242.297,342.977,282.873,313.287,312.731L313.287,312.731z"/>
</g>
<g>
	<path fill="#FFFFFF" d="M147.031,127.094H57.737c23.225-45.258,66.783-76.9,116.886-84.919L147.031,127.094L147.031,127.094z"/>
	<path fill="none" stroke="#000000" d="M147.031,127.094H57.737c23.225-45.258,66.783-76.9,116.886-84.919L147.031,127.094
		L147.031,127.094z"/>
</g>
<g>
	<path fill="#FFFFFF" d="M86.712,312.731c-29.689-29.861-46.546-70.436-46.546-112.73c0-8.24,0.636-16.49,1.898-24.631
		l72.229,52.475L86.712,312.731L86.712,312.731z"/>
	<path fill="none" stroke="#000000" d="M86.712,312.731c-29.689-29.861-46.546-70.436-46.546-112.73
		c0-8.24,0.636-16.49,1.898-24.631l72.229,52.475L86.712,312.731L86.712,312.731z"/>
</g>
<g>
	<path fill="#FFFFFF" d="M240.354,127.094h-80.708l28.095-86.46c4.083-0.309,8.19-0.467,12.259-0.467
		c4.068,0,8.176,0.158,12.26,0.467L240.354,127.094L240.354,127.094z"/>
	<path fill="none" stroke="#000000" d="M240.354,127.094h-80.708l28.095-86.46c4.083-0.309,8.19-0.467,12.259-0.467
		c4.068,0,8.176,0.158,12.26,0.467L240.354,127.094L240.354,127.094z"/>
</g>
<g>
	<path fill="#FFFFFF" d="M118.193,215.848L44.625,162.4c1.919-7.948,4.455-15.76,7.568-23.307h90.938L118.193,215.848
		L118.193,215.848z"/>
	<path fill="none" stroke="#000000" d="M118.193,215.848L44.625,162.4c1.919-7.948,4.455-15.76,7.568-23.307h90.938L118.193,215.848
		L118.193,215.848z"/>
</g>
<g>
	<path fill="#FFFFFF" d="M283.764,336.144l-73.556-53.441l65.29-47.438l28.09,86.447
		C297.357,327.021,290.714,331.855,283.764,336.144L283.764,336.144z"/>
	<path fill="none" stroke="#000000" d="M283.764,336.144l-73.556-53.441l65.29-47.438l28.09,86.447
		C297.357,327.021,290.714,331.855,283.764,336.144L283.764,336.144z"/>
</g>
<g>
	<path fill="#FFFFFF" d="M116.236,336.142c-6.952-4.288-13.596-9.123-19.822-14.429l28.088-86.449l65.29,47.438L116.236,336.142
		L116.236,336.142z"/>
	<path fill="none" stroke="#000000" d="M116.236,336.142c-6.952-4.288-13.596-9.123-19.822-14.429l28.088-86.449l65.29,47.438
		L116.236,336.142L116.236,336.142z"/>
</g>
<g>
	<path fill="#FFFFFF" d="M281.807,215.849l-24.938-76.755h90.938c3.113,7.554,5.649,15.363,7.564,23.306L281.807,215.849
		L281.807,215.849z"/>
	<path fill="none" stroke="#000000" d="M281.807,215.849l-24.938-76.755h90.938c3.113,7.554,5.649,15.363,7.564,23.306
		L281.807,215.849L281.807,215.849z"/>
</g>
<g>
	<polygon fill="#FFFFFF" points="199.999,275.285 128.401,223.264 155.748,139.094 244.252,139.094 271.599,223.264 
		199.999,275.285 	"/>
	<polygon fill="none" stroke="#000000" points="199.999,275.285 128.401,223.264 155.748,139.094 244.252,139.094 271.599,223.264 
		199.999,275.285 	"/>
</g>
</svg>
