<?xml version="1.0" encoding="utf-8"?>
<!-- Generator: Adobe Illustrator 13.0.0, SVG Export Plug-In . SVG Version: 6.00 Build 14948)  -->
<!DOCTYPE svg PUBLIC "-//W3C//DTD SVG 1.1//EN" "http://www.w3.org/Graphics/SVG/1.1/DTD/svg11.dtd">
<svg version="1.1" id="Layer_3" xmlns="http://www.w3.org/2000/svg" xmlns:xlink="http://www.w3.org/1999/xlink" x="0px" y="0px"
	 width="400px" height="400px" viewBox="0 0 400 400" enable-background="new 0 0 400 400" xml:space="preserve">
	<path fill="#ABACAD" d="M268.914,183.941c-1.375,2.381-3.625,2.381-5,0l-17.894-30.99c-1.375-2.381-0.25-4.33,2.5-4.33h35.786		c2.75,0,3.875,1.949,2.5,4.33L268.914,183.941z"/>
		<path fill="#ABACAD" d="M220.235,132.291c1.375,2.381,0.25,4.33-2.5,4.33h-35.786c-2.75,0-3.875-1.949-2.5-4.33l17.894-30.994		c1.375-2.381,3.625-2.381,5,0L220.235,132.291z"/>
		<path fill="#ABACAD" d="M202.657,298.705c-1.375,2.382-3.625,2.382-5,0l-17.894-30.995c-1.375-2.382-0.25-4.33,2.5-4.33h35.789		c2.75,0,3.875,1.948,2.5,4.33L202.657,298.705z"/>
		<path fill="#ABACAD" d="M202.343,68.639c-1.375,2.381-3.625,2.381-5,0l-18.195-31.515c-1.375-2.381-0.25-4.33,2.5-4.33h36.388		c2.75,0,3.875,1.949,2.5,4.33L202.343,68.639z"/>
		<path fill="#ABACAD" d="M298.737,132.29c-1.375,2.381-4.75,4.33-7.5,4.33h-49.645c-2.75,0-6.125-1.949-7.5-4.33l-24.82-42.993		c-1.375-2.381-1.375-6.279,0-8.66l25.12-43.51c1.375-2.381,4.75-4.33,7.5-4.33h49.645c2.75,0,6.125,1.949,7.5,4.33l24.82,42.991		c1.375,2.381,1.375,6.279,0,8.66L298.737,132.29z"/>
		<path fill="#ABACAD" d="M87.724,132.291c1.375,2.381,0.25,4.33-2.5,4.33H48.521c-2.75,0-3.875-1.949-2.5-4.33l18.351-31.785		c1.375-2.381,3.625-2.381,5,0L87.724,132.291z"/>
		<path fill="#ABACAD" d="M69.213,299.222c-1.375,2.382-3.625,2.382-5,0L46.02,267.71c-1.375-2.382-0.25-4.33,2.5-4.33h36.387		c2.75,0,3.875,1.948,2.5,4.33L69.213,299.222z"/>
		<path fill="#ABACAD" d="M353.979,132.289c1.375,2.381,0.25,4.33-2.5,4.33h-36.387c-2.75,0-3.875-1.949-2.5-4.33l18.193-31.512		c1.375-2.381,3.625-2.381,5,0L353.979,132.289z"/>
		<path fill="#ABACAD" d="M286.492,247.05c1.375,2.382,0.25,4.33-2.5,4.33h-35.156c-2.75,0-3.875-1.948-2.5-4.33l17.577-30.446		c1.375-2.382,3.625-2.382,5,0L286.492,247.05z"/>
		<path fill="#ABACAD" d="M165.593,132.291c-1.375,2.381-4.75,4.33-7.5,4.33H109.08c-2.75,0-6.125-1.949-7.5-4.33L76.3,88.505		c-1.375-2.381-1.375-6.279,0-8.66l24.664-42.72c1.375-2.381,4.75-4.33,7.5-4.33h49.328c2.75,0,6.125,1.949,7.5,4.33l25.123,43.512		c1.375,2.381,1.375,6.279,0,8.66L165.593,132.291z"/>
		<path fill="#ABACAD" d="M136.086,183.396c-1.375,2.381-3.625,2.381-5,0l-17.581-30.447c-1.375-2.381-0.25-4.33,2.5-4.33h35.159		c2.75,0,3.875,1.949,2.5,4.33L136.086,183.396z"/>
		<path fill="#ABACAD" d="M335.628,299.495c-1.375,2.382-3.625,2.382-5,0l-18.351-31.786c-1.375-2.382-0.25-4.33,2.5-4.33h36.702		c2.75,0,3.875,1.948,2.5,4.33L335.628,299.495z"/>
		<path fill="#ABACAD" d="M299.036,362.875c-1.375,2.382-4.75,4.33-7.5,4.33h-49.329c-2.75,0-6.125-1.948-7.5-4.33l-25.121-43.511		c-1.375-2.382-1.375-6.278,0-8.66l24.819-42.994c1.375-2.382,4.75-4.33,7.5-4.33h49.017c2.75,0,6.125,1.948,7.5,4.33l25.278,43.785		c1.375,2.382,1.375,6.278,0,8.66L299.036,362.875z"/>
		<path fill="#ABACAD" d="M99.333,247.049c-1.375,2.382-4.75,4.33-7.5,4.33h-50.24c-2.75,0-6.125-1.948-7.5-4.33L9.428,204.33		c-1.375-2.382-1.375-6.279,0-8.66l24.665-42.718c1.375-2.381,4.75-4.33,7.5-4.33h50.556c2.75,0,6.125,1.949,7.5,4.33l24.507,42.444		c1.375,2.381,1.375,6.279,0,8.661L99.333,247.049z"/>
		<path fill="#ABACAD" d="M365.909,247.05c-1.375,2.382-4.75,4.33-7.5,4.33h-50.561c-2.75,0-6.125-1.948-7.5-4.33l-24.508-42.446		c-1.375-2.382-1.375-6.279,0-8.661l24.822-42.992c1.375-2.381,4.75-4.33,7.5-4.33h50.246c2.75,0,6.125,1.949,7.5,4.33		l24.663,42.719c1.375,2.381,1.375,6.279,0,8.661L365.909,247.05z"/>
		<path fill="#ABACAD" d="M232.479,247.05c-1.375,2.382-4.75,4.33-7.5,4.33h-49.645c-2.75,0-6.125-1.948-7.5-4.33l-24.82-42.993		c-1.375-2.382-1.375-6.279,0-8.66l24.504-42.446c1.375-2.381,4.75-4.33,7.5-4.33h49.647c2.75,0,6.125,1.949,7.5,4.33l24.82,42.993		c1.375,2.381,1.375,6.278,0,8.66L232.479,247.05z"/>
		<path fill="#ABACAD" d="M153.978,247.049c1.375,2.382,0.25,4.33-2.5,4.33h-35.786c-2.75,0-3.875-1.948-2.5-4.33l17.893-30.992		c1.375-2.382,3.625-2.382,5,0L153.978,247.049z"/>
		<path fill="#ABACAD" d="M220.852,362.875c1.375,2.382,0.25,4.33-2.5,4.33h-36.389c-2.75,0-3.875-1.948-2.5-4.33l18.194-31.511		c1.375-2.382,3.625-2.382,5,0L220.852,362.875z"/>
		<path fill="#ABACAD" d="M165.608,362.875c-1.375,2.382-4.75,4.33-7.5,4.33h-49.646c-2.75,0-6.125-1.948-7.5-4.33l-24.82-42.993		c-1.375-2.382-1.375-6.278,0-8.66l25.121-43.512c1.375-2.382,4.75-4.33,7.5-4.33h49.646c2.75,0,6.125,1.948,7.5,4.33l24.82,42.994		c1.375,2.382,1.375,6.278,0,8.66L165.608,362.875z"/>
	</svg>
