<?xml version="1.0" encoding="utf-8"?>
<!-- Generator: Adobe Illustrator 13.0.0, SVG Export Plug-In . SVG Version: 6.00 Build 14948)  -->
<!DOCTYPE svg PUBLIC "-//W3C//DTD SVG 1.1//EN" "http://www.w3.org/Graphics/SVG/1.1/DTD/svg11.dtd">
<svg version="1.1" id="Layer_2" xmlns="http://www.w3.org/2000/svg" xmlns:xlink="http://www.w3.org/1999/xlink" x="0px" y="0px"
	 width="400px" height="400px" viewBox="0 0 400 400" enable-background="new 0 0 400 400" xml:space="preserve">
	<path fill="#AABBCC" d="M161.667,156.667c0,2.75-2.25,5-5,5H110c-2.75,0-5-2.25-5-5V110c0-2.75,2.25-5,5-5h46.667		c2.75,0,5,2.25,5,5V156.667z"/>
	<path fill="#AABBCC" d="M161.667,290c0,2.75-2.25,5-5,5H110c-2.75,0-5-2.25-5-5v-46.667c0-2.75,2.25-5,5-5h46.667		c2.75,0,5,2.25,5,5V290z"/>
	<path fill="#AABBCC" d="M295,156.667c0,2.75-2.25,5-5,5h-46.667c-2.75,0-5-2.25-5-5V110c0-2.75,2.25-5,5-5H290		c2.75,0,5,2.25,5,5V156.667z"/>
	<path fill="#AABBCC" d="M295,290c0,2.75-2.25,5-5,5h-46.667c-2.75,0-5-2.25-5-5v-46.667c0-2.75,2.25-5,5-5H290		c2.75,0,5,2.25,5,5V290z"/>
	<path fill="#AABBCC" d="M228.333,290c0,2.75-2.25,5-5,5h-46.667c-2.75,0-5-2.25-5-5v-46.667c0-2.75,2.25-5,5-5		h46.667c2.75,0,5,2.25,5,5V290z"/>
	<path fill="#AABBCC" d="M228.333,156.668c0,2.75-2.25,5-5,5h-46.667c-2.75,0-5-2.25-5-5v-46.669c0-2.75,2.25-5,5-5		h46.667c2.75,0,5,2.25,5,5V156.668z"/>
	<path fill="#AABBCC" d="M295,223.333c0,2.75-2.25,5-5,5h-46.667c-2.75,0-5-2.25-5-5v-46.667c0-2.75,2.25-5,5-5H290		c2.75,0,5,2.25,5,5V223.333z"/>
	<path fill="#AABBCC" d="M161.668,223.333c0,2.75-2.25,5-5,5h-46.669c-2.75,0-5-2.25-5-5v-46.667c0-2.75,2.25-5,5-5		h46.669c2.75,0,5,2.25,5,5V223.333z"/>
	<path fill="#AABBCC" d="M228.333,223.333c0,2.75-2.25,5-5,5h-46.667c-2.75,0-5-2.25-5-5v-46.667c0-2.75,2.25-5,5-5		h46.667c2.75,0,5,2.25,5,5V223.333z"/>
</svg>
