<?xml version="1.0" encoding="utf-8"?>
<!-- Generator: Adobe Illustrator 13.0.0, SVG Export Plug-In . SVG Version: 6.00 Build 14948)  -->
<!DOCTYPE svg PUBLIC "-//W3C//DTD SVG 1.1//EN" "http://www.w3.org/Graphics/SVG/1.1/DTD/svg11.dtd">
<svg version="1.1" id="Layer_2" xmlns="http://www.w3.org/2000/svg" xmlns:xlink="http://www.w3.org/1999/xlink" x="0px" y="0px"
	 width="384.19px" height="366.372px" viewBox="0 0 384.19 366.372" enable-background="new 0 0 384.19 366.372"
	 xml:space="preserve">

	<path id="test" class="classs" fill="none" stroke="#000000" d="M198.458,184.849c-3.218,4.46-8.509,4.479-11.758,0.041l-39.552-54.023
		c-3.249-4.438-2.267-10.714,2.183-13.947l35.165-25.548c4.45-3.233,11.723-3.221,16.162,0.026l34.621,25.324
		c4.439,3.247,5.438,9.553,2.221,14.014L198.458,184.849z"/>
	<path fill="none" stroke="#000000" d="M285.653,215.913c-1.701,5.23-7.373,8.119-12.604,6.42l-62.824-20.411
		c-5.23-1.699-6.872-6.735-3.648-11.191l39.056-53.966c3.224-4.456,9.506-5.46,13.96-2.233l34.413,24.94
		c4.454,3.228,6.706,10.147,5.005,15.378L285.653,215.913z"/>
	<path fill="none" stroke="#000000" d="M263.259,284.754c-1.701,5.23-7.594,9.51-13.094,9.51h-42.623c-5.5,0-9.995-4.5-9.989-10
		l0.068-65.92c0.006-5.5,4.29-8.609,9.521-6.91l62.814,20.41c5.231,1.699,8.118,7.369,6.417,12.6L263.259,284.754z"/>

<g class="center3">
	<path fill="none" stroke="#000000" d="M187.551,284.264c-0.005,5.5-4.51,10-10.01,10h-43.725c-5.5,0-11.391-4.279-13.09-9.511
		l-12.958-39.88c-1.7-5.231,1.188-10.904,6.418-12.606l63.937-20.819c5.23-1.702,9.504,1.404,9.499,6.904L187.551,284.264z"/>
</g>
<g class="center4">
	<path fill="none" stroke="#000000" d="M111.36,222.745c-5.228,1.708-10.896-1.175-12.596-6.406l-13.387-41.196
		c-1.7-5.23,0.55-12.155,5-15.388l34.686-25.2c4.45-3.233,10.749-2.247,13.998,2.191l39.563,54.038
		c3.249,4.438,1.629,9.465-3.599,11.173L111.36,222.745z"/>
</g>
<g class="edge0">
	<path fill="none" stroke="#000000" d="M255.24,106.237c-3.233,4.45-9.52,5.447-13.972,2.217l-32.071-23.275
		c-4.452-3.23-4.453-8.519-0.004-11.751l35.959-26.126c4.449-3.233,11.731-3.235,16.183-0.004l15.954,11.579
		c4.451,3.231,5.448,9.515,2.215,13.964L255.24,106.237z"/>
</g>
<g class="edge1">
	<path fill="none" stroke="#000000" d="M308.77,145.622c-1.7,5.23-6.735,6.87-11.188,3.643l-32.026-23.203
		c-4.453-3.227-5.452-9.508-2.22-13.958l24.261-33.391c3.232-4.45,9.52-5.447,13.972-2.217l15.91,11.547
		c4.452,3.23,6.703,10.153,5.003,15.384L308.77,145.622z"/>
</g>
<g class="edge2">
	<path fill="none" stroke="#000000" d="M353.66,238.009c-1.702,5.23-7.374,8.119-12.604,6.42l-39.22-12.743
		c-5.231-1.699-8.12-7.369-6.421-12.601l12.317-37.908c1.699-5.231,6.73-6.866,11.18-3.633l35.925,26.099
		c4.449,3.233,6.698,10.157,4.996,15.388L353.66,238.009z"/>
</g>
<g class="edge3">
	<path fill="none" stroke="#000000" d="M338.455,284.756c-1.701,5.23-7.594,9.51-13.094,9.51h-44.373c-5.5,0-8.609-4.279-6.91-9.511
		l12.068-37.14c1.699-5.231,7.369-8.12,12.601-6.421l39.218,12.744c5.231,1.699,8.118,7.369,6.417,12.6L338.455,284.756z"/>
</g>
<g class="edge4">
	<path fill="none" stroke="#000000" d="M240.298,356.361c-1.7,5.231-7.591,9.511-13.091,9.511h-19.672c-5.5,0-10-4.5-10-10v-41.427
		c0-5.5,4.5-9.998,10-9.996l39.625,0.018c5.5,0.002,8.609,4.283,6.909,9.515L240.298,356.361z"/>
</g>
<g class="edge5">
	<path fill="none" stroke="#000000" d="M187.536,355.872c0,5.5-4.5,10-10,10h-20.2c-5.5,0-11.405-4.275-13.123-9.5l-13.997-42.589
		c-1.717-5.225,1.377-9.489,6.877-9.476l40.442,0.099c5.5,0.014,10,4.524,10,10.024V355.872z"/>
</g>
<g class="edge6">
	<path fill="none" stroke="#000000" d="M110.205,284.754c1.701,5.23-1.407,9.51-6.907,9.51H58.826c-5.5,0-11.392-4.279-13.094-9.51
		l-5.777-17.756c-1.702-5.23,1.186-10.9,6.417-12.6l39.289-12.767c5.231-1.699,10.903,1.189,12.604,6.42L110.205,284.754z"/>
</g>
<g class="edge7">
	<path fill="none" stroke="#000000" d="M43.281,244.887c-5.231,1.699-10.903-1.189-12.604-6.42l-6.206-19.077
		c-1.701-5.23,0.547-12.154,4.997-15.388l36.178-26.283c4.45-3.232,9.466-1.593,11.147,3.644l12.246,38.142
		c1.682,5.237-1.223,10.912-6.454,12.611L43.281,244.887z"/>
</g>
<g class="edge8">
	<path fill="none" stroke="#000000" d="M87.109,149.768c-4.449,3.233-9.479,1.598-11.177-3.634l-13.929-42.918
		c-1.698-5.231,0.555-12.155,5.006-15.385l15.769-11.445c4.451-3.23,10.738-2.233,13.971,2.217l24.631,33.903
		c3.233,4.45,2.237,10.735-2.212,13.968L87.109,149.768z"/>
</g>
<g class="edge9">
	<path fill="none" stroke="#000000" d="M143.44,108.839c-4.45,3.233-10.735,2.237-13.968-2.212l-24.63-33.898
		c-3.233-4.449-2.236-10.733,2.215-13.963l16.115-11.695c4.451-3.23,11.742-3.24,16.201-0.021l36.591,26.416
		c4.459,3.219,4.467,8.498,0.018,11.731L143.44,108.839z"/>
</g>
<g class="corner0">
	<path fill="none" stroke="#000000" d="M200.677,67.255c-4.45,3.233-11.739,3.244-16.198,0.025l-36.586-26.412
		c-4.459-3.219-4.466-8.496-0.015-11.727l36.124-26.218c4.451-3.23,11.735-3.23,16.186,0l36.448,26.453
		c4.451,3.23,4.452,8.519,0.003,11.751L200.677,67.255z"/>
</g>
<g class="corner1">
	<path fill="none" stroke="#000000" d="M369.272,190.018c-1.702,5.23-6.734,6.864-11.184,3.632l-35.926-26.104
		c-4.449-3.233-6.699-10.158-5-15.389l13.827-42.554c1.699-5.231,6.731-6.868,11.184-3.637l35.948,26.089
		c4.452,3.23,6.702,10.153,5,15.383L369.272,190.018z"/>
</g>
<g class="corner2">
	<path fill="none" stroke="#000000" d="M315.164,356.362c-1.701,5.23-7.593,9.51-13.093,9.51h-44.349c-5.5,0-8.609-4.279-6.91-9.511
		l13.837-42.584c1.699-5.231,7.59-9.511,13.09-9.511h44.369c5.5,0,8.608,4.279,6.907,9.51L315.164,356.362z"/>
</g>
<g class="corner3">
	<path fill="none" stroke="#000000" d="M133.687,356.371c1.717,5.225-1.377,9.5-6.877,9.5H82.117c-5.5,0-11.392-4.279-13.093-9.51
		l-13.851-42.586c-1.701-5.23,1.407-9.51,6.907-9.51h44.481c5.5,0,11.405,4.275,13.123,9.5L133.687,356.371z"/>
</g>
<g class="corter4">
	<path fill="none" stroke="#000000" d="M26.218,194.007c-4.449,3.232-9.482,1.599-11.183-3.632L1.068,147.439
		c-1.701-5.23,0.549-12.153,5-15.383l36.245-26.306c4.451-3.23,9.482-1.593,11.18,3.638l13.93,42.926
		c1.698,5.231-0.554,12.157-5.003,15.39L26.218,194.007z"/>
</g>
</svg>
