<?xml version="1.0" encoding="utf-8"?>
<!-- Generator: Adobe Illustrator 13.0.0, SVG Export Plug-In . SVG Version: 6.00 Build 14948)  -->
<!DOCTYPE svg PUBLIC "-//W3C//DTD SVG 1.1//EN" "http://www.w3.org/Graphics/SVG/1.1/DTD/svg11.dtd">
<svg version="1.1" id="Layer_1" xmlns="http://www.w3.org/2000/svg" xmlns:xlink="http://www.w3.org/1999/xlink" x="0px" y="0px"
	 width="400px" height="400px" viewBox="0 0 400 400" enable-background="new 0 0 400 400" xml:space="preserve">

	<path fill="#FFAABB" d="M204.242,187.272c-2.333,2.333-6.152,2.333-8.485,0l-43.695-43.695c-2.333-2.333-1.542-4.243,1.757-4.243		h92.364c3.3,0,4.091,1.909,1.757,4.243L204.242,187.272z"/>
	<path fill="#FFAABB" d="M135.092,256.424c-2.333,2.334-6.943,4.243-10.243,4.243H12c-3.3,0-6-2.7-6-6V145.334c0-3.3,2.7-6,6-6		h112.85c3.3,0,7.909,1.909,10.243,4.243l52.18,52.18c2.333,2.333,2.333,6.152,0,8.485L135.092,256.424z"/>
	<path fill="#FFAABB" d="M247.94,256.425c2.333,2.333,1.542,4.242-1.758,4.242h-92.364c-3.3,0-4.091-1.909-1.757-4.243		l43.695-43.696c2.333-2.334,6.152-2.334,8.485-0.001L247.94,256.425z"/>
	<path fill="#FFAABB" d="M394,254.667c0,3.3-2.7,6-6,6H275.153c-3.3,0-7.909-1.909-10.242-4.242l-52.183-52.182		c-2.333-2.333-2.333-6.152,0-8.485l52.182-52.181c2.334-2.333,6.943-4.243,10.243-4.243H388c3.3,0,6,2.7,6,6V254.667z"/>
</svg>
