<?xml version="1.0" encoding="utf-8"?>
<!-- Generator: Adobe Illustrator 13.0.0, SVG Export Plug-In . SVG Version: 6.00 Build 14948)  -->
<!DOCTYPE svg PUBLIC "-//W3C//DTD SVG 1.0//EN" "http://www.w3.org/TR/2001/REC-SVG-20010904/DTD/svg10.dtd">
<svg version="1.0" id="Layer_2" xmlns="http://www.w3.org/2000/svg" xmlns:xlink="http://www.w3.org/1999/xlink" x="0px" y="0px"
	 width="400px" height="400px" viewBox="0 0 400 400" enable-background="new 0 0 400 400" xml:space="preserve">
<path d="M116.5-11.5c0,1.655,1.342,3,3,3s3-1.344,3-3v-24.124h12.005L119.547-61.53L104.59-35.623H116.5V-11.5z"/>
<path d="M159.09-34.881H171v24.123c0,1.656,1.343,3.001,2.999,3.001s3.001-1.345,3.001-3.001v-24.123h12.004l-14.958-25.907
	L159.09-34.881z"/>
<path d="M211.589-34.881h11.909v24.124c0,1.657,1.344,3,3.002,3c1.655,0,3-1.343,3-3v-24.124h12.004l-14.957-25.907L211.589-34.881z
	"/>
<path d="M276.499-10.759c0,1.657,1.344,3,3.001,3c1.655,0,3.001-1.343,3.001-3v-24.122h12.003l-14.957-25.907l-14.958,25.907h11.91
	V-10.759z"/>
<path d="M411,117c-1.656,0-3,1.342-3,3s1.344,3,3,3h24.123v12.005l25.907-14.958l-25.907-14.958V117H411z"/>
<path d="M434.381,159.589V171.5h-24.123c-1.656,0-3,1.343-3,2.999s1.344,3.001,3,3.001h24.123v12.004l25.907-14.958L434.381,159.589
	z"/>
<path d="M434.381,212.089v11.909h-24.123c-1.657,0-3,1.344-3,3.002c0,1.655,1.343,3,3,3h24.123v12.004l25.907-14.957
	L434.381,212.089z"/>
<path d="M410.259,276.999c-1.657,0-3.001,1.344-3.001,3.001c0,1.655,1.344,3.001,3.001,3.001h24.122v12.003l25.907-14.957
	l-25.907-14.958v11.91H410.259z"/>
<path d="M282.5,411.5c0-1.656-1.342-3-3-3c-1.657,0-2.999,1.344-2.999,3v24.123h-12.005l14.957,25.907l14.957-25.907H282.5V411.5z"
	/>
<path d="M239.91,434.881H228v-24.123c0-1.656-1.343-3-2.999-3s-3.001,1.344-3.001,3v24.123h-12.004l14.957,25.907L239.91,434.881z"
	/>
<path d="M187.411,434.881h-11.909v-24.123c0-1.657-1.344-3-3.002-3c-1.655,0-3,1.343-3,3v24.123h-12.004l14.957,25.907
	L187.411,434.881z"/>
<path d="M122.501,410.759c0-1.657-1.344-3.001-3.001-3.001c-1.655,0-3.001,1.344-3.001,3.001v24.122h-12.003l14.957,25.907
	l14.958-25.907h-11.91V410.759z"/>
<path d="M-12,283c1.656,0,3-1.342,3-3c0-1.657-1.344-2.999-3-2.999h-24.123v-12.005l-25.907,14.957l25.907,14.957V283H-12z"/>
<path d="M-35.381,240.41V228.5h24.123c1.656,0,3-1.343,3-2.999s-1.344-3.001-3-3.001h-24.123v-12.004l-25.907,14.957L-35.381,240.41
	z"/>
<path d="M-35.381,187.911v-11.909h24.123c1.657,0,3-1.344,3-3.002c0-1.655-1.343-3-3-3h-24.123v-12.004l-25.907,14.957
	L-35.381,187.911z"/>
<path d="M-11.259,123.001c1.657,0,3.001-1.344,3.001-3.001c0-1.655-1.344-3.001-3.001-3.001h-24.122v-12.003l-25.907,14.957
	l25.907,14.958v-11.91H-11.259z"/>
</svg>
