<?xml version="1.0" encoding="utf-8"?>
<!-- Generator: Adobe Illustrator 13.0.0, SVG Export Plug-In . SVG Version: 6.00 Build 14948)  -->
<!DOCTYPE svg PUBLIC "-//W3C//DTD SVG 1.1//EN" "http://www.w3.org/Graphics/SVG/1.1/DTD/svg11.dtd">
<svg version="1.1" id="Layer_2" xmlns="http://www.w3.org/2000/svg" xmlns:xlink="http://www.w3.org/1999/xlink" x="0px" y="0px"
	 width="400px" height="400px" viewBox="0 0 400 400" enable-background="new 0 0 400 400" xml:space="preserve">
00	<path fill="none" stroke="#000000" d="M394,131.757c0,5.5-4.5,10-10,10h-47.879c-5.5,0-14.5,0-20,0h-47.879c-5.5,0-10-4.5-10-10		V83.878c0-5.5,0-14.5,0-20V16c0-5.5,4.5-10,10-10h47.879c5.5,0,14.5,0,20,0H384c5.5,0,10,4.5,10,10v47.878c0,5.5,0,14.5,0,20		V131.757z"/>
01	<path fill="none" stroke="#000000" d="M394,236.241c0,5.5-4.5,10-10,10h-41.879c-5.5,0-10-4.5-10-10v-72.484c0-5.5,4.5-10,10-10		H384c5.5,0,10,4.5,10,10V236.241z"/>
02	<path fill="none" stroke="#000000" d="M320.121,236.241c0,5.5-4.5,10-10,10h-41.88c-5.5,0-10-4.5-10-10v-72.484c0-5.5,4.5-10,10-10		h41.88c5.5,0,10,4.5,10,10V236.241z"/>
03	<path fill="none" stroke="#000000" d="M394,384c0,5.5-4.5,10-10,10h-47.879c-5.5,0-14.5,0-20,0h-47.879c-5.5,0-10-4.5-10-10		v-47.879c0-5.5,0-14.5,0-20v-47.879c0-5.5,4.5-10,10-10h47.879c5.5,0,14.5,0,20,0H384c5.5,0,10,4.5,10,10v47.879c0,5.5,0,14.5,0,20		V384z"/>
04	<path fill="none" stroke="#000000" d="M246.241,384c0,5.5-4.5,10-10,10H163.76c-5.5,0-10-4.5-10-10v-41.879c0-5.5,4.5-10,10-10		h72.481c5.5,0,10,4.5,10,10V384z"/>
05	<path fill="none" stroke="#000000" d="M246.241,310.121c0,5.5-4.5,10-10,10h-72.482c-5.5,0-10-4.5-10-10v-41.88c0-5.5,4.5-10,10-10		h72.482c5.5,0,10,4.5,10,10V310.121z"/>
06	<path fill="none" stroke="#000000" d="M141.759,384c0,5.5-4.5,10-10,10H83.878c-5.5,0-14.5,0-20,0H16.001c-5.5,0-10-4.5-10-10		v-47.879c0-5.5,0-14.5,0-20v-47.879c0-5.5,4.5-10,10-10h47.876c5.5,0,14.5,0,20,0h47.881c5.5,0,10,4.5,10,10v47.879		c0,5.5,0,14.5,0,20V384z"/>
07	<path fill="none" stroke="#000000" d="M67.877,236.241c0,5.5-4.5,10-10,10H16c-5.5,0-10-4.5-10-10v-72.484c0-5.5,4.5-10,10-10		h41.877c5.5,0,10,4.5,10,10V236.241z"/>
08	<path fill="none" stroke="#000000" d="M141.758,236.241c0,5.5-4.5,10-10,10H89.879c-5.5,0-10-4.5-10-10v-72.483c0-5.5,4.5-10,10-10		h41.879c5.5,0,10,4.5,10,10V236.241z"/>
09	<path fill="none" stroke="#000000" d="M141.757,131.757c0,5.5-4.5,10-10,10H83.878c-5.5,0-14.5,0-20,0H16.001c-5.5,0-10-4.5-10-10		V83.878c0-5.5,0-14.5,0-20V16.001c0-5.5,4.5-10,10-10h47.876c5.5,0,14.5,0,20,0h47.879c5.5,0,10,4.5,10,10v47.876		c0,5.5,0,14.5,0,20V131.757z"/>
10	<path fill="none" stroke="#000000" d="M246.241,57.877c0,5.5-4.5,10-10,10H163.76c-5.5,0-10-4.5-10-10V16c0-5.5,4.5-10,10-10		h72.481c5.5,0,10,4.5,10,10V57.877z"/>
11	<path fill="none" stroke="#000000" d="M246.241,131.756c0,5.5-4.5,10-10,10H163.76c-5.5,0-10-4.5-10-10V89.879c0-5.5,4.5-10,10-10		h72.481c5.5,0,10,4.5,10,10V131.756z"/>
12	<path fill="none" stroke="#000000" d="M246.241,236.241c0,5.5-4.5,10-10,10H163.76c-5.5,0-10-4.5-10-10v-72.483c0-5.5,4.5-10,10-10		h72.481c5.5,0,10,4.5,10,10V236.241z"/>
</svg>