<?xml version="1.0" encoding="utf-8"?>
<!-- Generator: Adobe Illustrator 13.0.0, SVG Export Plug-In . SVG Version: 6.00 Build 14948)  -->
<!DOCTYPE svg PUBLIC "-//W3C//DTD SVG 1.1//EN" "http://www.w3.org/Graphics/SVG/1.1/DTD/svg11.dtd">
<svg version="1.1" xmlns="http://www.w3.org/2000/svg" xmlns:xlink="http://www.w3.org/1999/xlink" x="0px" y="0px" width="400px"
	 height="400px" viewBox="0 0 400 400" enable-background="new 0 0 400 400" xml:space="preserve">

<path fill="none" stroke="#000000" d="M394,135.757c0,3.3-2.7,6-6,6h-55.879c-3.3,0-8.7,0-12,0h-55.879c-3.3,0-6-2.7-6-6V79.878			c0-3.3,0-8.7,0-12V12c0-3.3,2.7-6,6-6h55.879c3.3,0,8.7,0,12,0H388c3.3,0,6,2.7,6,6v55.878c0,3.3,0,8.7,0,12V135.757z"/>
<path fill="none" stroke="#000000" d="M394,188c0,3.3-2.7,6-6,6h-49.879c-3.3,0-6-2.7-6-6v-28.243c0-3.3,2.7-6,6-6H388			c3.3,0,6,2.7,6,6V188z"/>
<path fill="none" stroke="#000000" d="M394,240.241c0,3.3-2.7,6-6,6h-49.879c-3.3,0-6-2.7-6-6v-28.24c0-3.3,2.7-6,6-6H388			c3.3,0,6,2.7,6,6V240.241z"/>
<path fill="none" stroke="#000000" d="M320.121,240.241c0,3.3-2.7,6-6,6h-49.88c-3.3,0-6-2.7-6-6V212c0-3.3,2.7-6,6-6h49.88			c3.3,0,6,2.7,6,6V240.241z"/>
<path fill="none" stroke="#000000" d="M320.121,188c0,3.3-2.7,6-6,6h-49.88c-3.3,0-6-2.7-6-6v-28.243c0-3.3,2.7-6,6-6h49.88			c3.3,0,6,2.7,6,6V188z"/>
<path fill="none" stroke="#000000" d="M246.241,188c0,3.3-2.7,6-6,6h-28.24c-3.3,0-6-2.7-6-6v-28.242c0-3.3,2.7-6,6-6h28.24			c3.3,0,6,2.7,6,6V188z"/>
<path fill="none" stroke="#000000" d="M394,388c0,3.3-2.7,6-6,6h-55.879c-3.3,0-8.7,0-12,0h-55.879c-3.3,0-6-2.7-6-6v-55.879			c0-3.3,0-8.7,0-12v-55.879c0-3.3,2.7-6,6-6h55.879c3.3,0,8.7,0,12,0H388c3.3,0,6,2.7,6,6v55.879c0,3.3,0,8.7,0,12V388z"/>
<path fill="none" stroke="#000000" d="M246.241,388c0,3.3-2.7,6-6,6h-28.24c-3.3,0-6-2.7-6-6v-49.879c0-3.3,2.7-6,6-6h28.24			c3.3,0,6,2.7,6,6V388z"/>
<path fill="none" stroke="#000000" d="M194,388c0,3.3-2.7,6-6,6h-28.24c-3.3,0-6-2.7-6-6v-49.879c0-3.3,2.7-6,6-6H188			c3.3,0,6,2.7,6,6V388z"/>
<path fill="none" stroke="#000000" d="M194,314.121c0,3.3-2.7,6-6,6h-28.241c-3.3,0-6-2.7-6-6v-49.88c0-3.3,2.7-6,6-6H188			c3.3,0,6,2.7,6,6V314.121z"/>
<path fill="none" stroke="#000000" d="M246.241,314.121c0,3.3-2.7,6-6,6H212c-3.3,0-6-2.7-6-6v-49.88c0-3.3,2.7-6,6-6h28.241			c3.3,0,6,2.7,6,6V314.121z"/>
<path fill="none" stroke="#000000" d="M246.241,240.241c0,3.3-2.7,6-6,6h-28.24c-3.3,0-6-2.7-6-6v-28.24c0-3.3,2.7-6,6-6h28.24			c3.3,0,6,2.7,6,6V240.241z"/>
<path fill="none" stroke="#000000" d="M141.759,388c0,3.3-2.7,6-6,6H79.878c-3.3,0-8.7,0-12,0H12.001c-3.3,0-6-2.7-6-6v-55.879			c0-3.3,0-8.7,0-12v-55.879c0-3.3,2.7-6,6-6h55.876c3.3,0,8.7,0,12,0h55.881c3.3,0,6,2.7,6,6v55.879c0,3.3,0,8.7,0,12V388z"/>
<path fill="none" stroke="#000000" d="M67.877,240.241c0,3.3-2.7,6-6,6H12c-3.3,0-6-2.7-6-6V212c0-3.3,2.7-6,6-6h49.877			c3.3,0,6,2.7,6,6V240.241z"/>
<path fill="none" stroke="#000000" d="M67.878,187.999c0,3.3-2.7,6-6,6H12c-3.3,0-6-2.7-6-6v-28.241c0-3.3,2.7-6,6-6h49.878			c3.3,0,6,2.7,6,6V187.999z"/>
<path fill="none" stroke="#000000" d="M141.758,187.999c0,3.3-2.7,6-6,6h-49.88c-3.3,0-6-2.7-6-6v-28.241c0-3.3,2.7-6,6-6h49.88			c3.3,0,6,2.7,6,6V187.999z"/>
<path fill="none" stroke="#000000" d="M141.758,240.241c0,3.3-2.7,6-6,6H85.879c-3.3,0-6-2.7-6-6v-28.24c0-3.3,2.7-6,6-6h49.879			c3.3,0,6,2.7,6,6V240.241z"/>
<path fill="none" stroke="#000000" d="M194,240.241c0,3.3-2.7,6-6,6H159.76c-3.3,0-6-2.7-6-6v-28.24c0-3.3,2.7-6,6-6H188			c3.3,0,6,2.7,6,6V240.241z"/>
<path fill="none" stroke="#000000" d="M141.757,135.757c0,3.3-2.7,6-6,6H79.878c-3.3,0-8.7,0-12,0H12.001c-3.3,0-6-2.7-6-6V79.878			c0-3.3,0-8.7,0-12V12.001c0-3.3,2.7-6,6-6h55.876c3.3,0,8.7,0,12,0h55.879c3.3,0,6,2.7,6,6v55.876c0,3.3,0,8.7,0,12V135.757z"/>
<path fill="none" stroke="#000000" d="M193.999,61.878c0,3.3-2.7,6-6,6h-28.241c-3.3,0-6-2.7-6-6V12c0-3.3,2.7-6,6-6h28.241			c3.3,0,6,2.7,6,6V61.878z"/>
<path fill="none" stroke="#000000" d="M246.241,61.877c0,3.3-2.7,6-6,6h-28.24c-3.3,0-6-2.7-6-6V12c0-3.3,2.7-6,6-6h28.24			c3.3,0,6,2.7,6,6V61.877z"/>
<path fill="none" stroke="#000000" d="M246.241,135.756c0,3.3-2.7,6-6,6h-28.24c-3.3,0-6-2.7-6-6V85.879c0-3.3,2.7-6,6-6h28.24			c3.3,0,6,2.7,6,6V135.756z"/>
<path fill="none" stroke="#000000" d="M193.999,135.758c0,3.3-2.7,6-6,6h-28.241c-3.3,0-6-2.7-6-6v-49.88c0-3.3,2.7-6,6-6h28.241			c3.3,0,6,2.7,6,6V135.758z"/>
<path fill="none" stroke="#000000" d="M193.999,187.999c0,3.3-2.7,6-6,6h-28.241c-3.3,0-6-2.7-6-6v-28.241c0-3.3,2.7-6,6-6h28.241			c3.3,0,6,2.7,6,6V187.999z"/>

</svg>
