<?xml version="1.0" encoding="utf-8"?>
<!-- Generator: Adobe Illustrator 13.0.0, SVG Export Plug-In . SVG Version: 6.00 Build 14948)  -->
<!DOCTYPE svg PUBLIC "-//W3C//DTD SVG 1.0//EN" "http://www.w3.org/TR/2001/REC-SVG-20010904/DTD/svg10.dtd">
<svg version="1.0" id="Layer_2" xmlns="http://www.w3.org/2000/svg" xmlns:xlink="http://www.w3.org/1999/xlink" x="0px" y="0px"
	 width="400px" height="400px" viewBox="0 0 400 400" enable-background="new 0 0 400 400" xml:space="preserve">
<path d="M116.5,60.5c0,1.655,1.342,3,3,3s3-1.344,3-3V36.377h12.005L119.547,10.47L104.59,36.377h11.91V60.5z"/>
<path d="M159.09,37.119H171v24.123c0,1.656,1.343,3.001,2.999,3.001c1.655,0,3.001-1.345,3.001-3.001V37.119h12.004l-14.958-25.907
	L159.09,37.119z"/>
<path d="M211.589,37.119h11.909v24.124c0,1.657,1.344,3,3.002,3c1.654,0,3-1.343,3-3V37.119h12.004l-14.957-25.907L211.589,37.119z"
	/>
<path d="M276.499,61.241c0,1.657,1.344,3,3.001,3c1.654,0,3.001-1.343,3.001-3V37.119h12.003l-14.957-25.907l-14.958,25.907h11.91
	V61.241z"/>
<path d="M339,122h24.122v12.004l25.907-14.958l-25.907-14.958V116H339c-1.657,0-3.002,1.341-3.002,2.999
	C335.998,120.658,337.343,122,339,122z"/>
<path d="M362.381,170.5h-24.124c-1.658,0-2.999,1.343-2.999,2.999c0,1.658,1.341,3.001,2.999,3.001h24.124v12.004l25.906-14.958
	l-25.906-14.958V170.5z"/>
<path d="M362.381,223h-24.124c-1.658,0-2.999,1.344-2.999,2.999c0,1.657,1.341,3,2.999,3h24.124v12.005l25.906-14.957
	l-25.906-14.957V223z"/>
<path d="M362.381,275.999h-24.124c-1.658,0-2.999,1.344-2.999,3.001c0,1.654,1.341,2.999,2.999,2.999h24.124v12.005l25.906-14.957
	l-25.906-14.957V275.999z"/>
<path d="M283.499,338.5c0-1.658-1.344-3.001-3-3.001s-2.999,1.343-2.999,3.001v24.123h-12.005l14.958,25.906l14.957-25.906h-11.911
	V338.5z"/>
<path d="M228.999,337.757c0-1.655-1.344-2.999-2.999-2.999c-1.657,0-3,1.344-3,2.999v24.124h-12.005l14.958,25.907l14.957-25.907
	h-11.911V337.757L228.999,337.757z"/>
<path d="M176.5,337.757c0-1.655-1.343-2.999-3-2.999s-3,1.344-3,2.999v24.124h-12.003l14.958,25.907l14.958-25.907H176.5V337.757z"
	/>
<path d="M123.5,337.757c0-1.655-1.343-2.999-3-2.999s-3,1.344-3,2.999v24.124h-12.003l14.958,25.907l14.958-25.907H123.5V337.757z"
	/>
<path d="M60.999,276.999H36.877v-12.004L10.97,279.953l25.907,14.957V283h24.122c1.656,0,3.001-1.344,3.001-3
	C64,278.343,62.656,276.999,60.999,276.999z"/>
<path d="M61.742,222.499H37.619v-12.004l-25.907,14.958l25.907,14.957V228.5h24.123c1.656,0,3-1.346,3-3.001
	C64.742,223.843,63.399,222.499,61.742,222.499z"/>
<path d="M61.742,170H37.619v-12.005l-25.907,14.958l25.907,14.958V176h24.123c1.655,0,3.001-1.345,3.001-3.001
	C64.743,171.343,63.398,170,61.742,170z"/>
<path d="M37.619,123h24.123c1.655,0,3-1.342,3-3s-1.345-3-3-3H37.619v-12.004l-25.907,14.958l25.907,14.958V123z"/>
<path d="M159.955,95.119h29.591v22.123c0,1.656,3.336,5.001,7.451,5.001c4.112,0,7.456-3.345,7.456-5.001V95.119h29.823
	l-37.163-25.907L159.955,95.119z"/>
<path d="M303.881,159.955v29.591h-22.123c-1.656,0-5.001,3.336-5.001,7.451c0,4.112,3.345,7.456,5.001,7.456h22.123v29.823
	l25.907-37.163L303.881,159.955z"/>
<path d="M239.045,303.881h-29.591v-22.123c0-1.656-3.337-5.001-7.451-5.001c-4.112,0-7.456,3.345-7.456,5.001v22.123h-29.823
	l37.163,25.907L239.045,303.881z"/>
<path d="M95.119,239.045v-29.591h22.123c1.656,0,5.001-3.337,5.001-7.451c0-4.112-3.345-7.456-5.001-7.456H95.119v-29.823
	l-25.907,37.163L95.119,239.045z"/>
</svg>
