<?xml version="1.0" encoding="utf-8"?>
<!-- Generator: Adobe Illustrator 13.0.0, SVG Export Plug-In . SVG Version: 6.00 Build 14948)  -->
<!DOCTYPE svg PUBLIC "-//W3C//DTD SVG 1.1//EN" "http://www.w3.org/Graphics/SVG/1.1/DTD/svg11.dtd">
<svg version="1.1" id="Layer_2" xmlns="http://www.w3.org/2000/svg" xmlns:xlink="http://www.w3.org/1999/xlink" x="0px" y="0px"
	 width="400px" height="400px" viewBox="0 0 400 400" enable-background="new 0 0 400 400" xml:space="preserve">
<g>
	<path fill="none" stroke="#000000" d="M246.241,236.241c0,5.5-4.5,10-10,10H163.76c-5.5,0-10-4.5-10-10v-72.483c0-5.5,4.5-10,10-10
		h72.481c5.5,0,10,4.5,10,10V236.241z"/>
</g>
<g>
	<path fill="none" stroke="#000000" d="M0,157.758c0-5.5,0-14.5,0-20V83.878c0-5.5,0-14.5,0-20V10C0,4.5,0,0-0.001,0c0,0,0,4.5,0,10
		v380c0,5.5,0,10,0,10C0,400,0,395.5,0,390v-53.879c0-5.5,0-14.5,0-20V157.758z"/>
</g>
<g>
	<path fill="none" stroke="#000000" d="M141.758,236.241c0,5.5-4.5,10-10,10H89.879c-5.5,0-10-4.5-10-10v-72.483c0-5.5,4.5-10,10-10
		h41.879c5.5,0,10,4.5,10,10V236.241z"/>
</g>
<g>
	<path fill="none" stroke="#000000" d="M67.877,236.241c0,5.5-4.5,10-10,10H16c-5.5,0-10-4.5-10-10v-72.484c0-5.5,4.5-10,10-10
		h41.877c5.5,0,10,4.5,10,10V236.241z"/>
</g>
<g>
	<path fill="none" stroke="#000000" d="M0,326.121c0,0,0,4.5,0,10V390c0,5.5,0,10,0,10c0,0,0-4.5,0-10v-53.879
		C0,330.621,0,326.121,0,326.121z"/>
</g>
<g>
	<path fill="none" stroke="#000000" d="M262.242,400c-5.5,0-14.5,0-20,0h-84.484c-5.5,0-14.5,0-20,0h-53.88c-5.5,0-14.5,0-20,0H10
		c-5.5,0-10,0-10,0.001s4.5,0.001,10,0.001h380c5.5,0,10,0,10-0.001S395.5,400,390,400h-53.879c-5.5,0-14.5,0-20,0H262.242z"/>
</g>
<g>
	<path fill="none" stroke="#000000" d="M246.241,310.121c0,5.5-4.5,10-10,10h-72.482c-5.5,0-10-4.5-10-10v-41.88c0-5.5,4.5-10,10-10
		h72.482c5.5,0,10,4.5,10,10V310.121z"/>
</g>
<g>
	<path fill="none" stroke="#000000" d="M246.241,384c0,5.5-4.5,10-10,10H163.76c-5.5,0-10-4.5-10-10v-41.879c0-5.5,4.5-10,10-10
		h72.481c5.5,0,10,4.5,10,10V384z"/>
</g>
<g>
	<path fill="none" stroke="#000000" d="M141.759,384c0,5.5-4.5,10-10,10h-41.88c-5.5,0-10-4.5-10-10v-41.879c0-5.5,4.5-10,10-10
		h41.88c5.5,0,10,4.5,10,10V384z"/>
</g>
<g>
	<path fill="none" stroke="#000000" d="M141.759,310.121c0,5.5-4.5,10-10,10H89.877c-5.5,0-10-4.5-10-10v-41.88c0-5.5,4.5-10,10-10
		h41.882c5.5,0,10,4.5,10,10V310.121z"/>
</g>
<g>
	<path fill="none" stroke="#000000" d="M67.878,384c0,5.5-4.5,10-10,10H16.001c-5.5,0-10-4.5-10-10v-41.879c0-5.5,4.5-10,10-10
		h41.876c5.5,0,10,4.5,10,10V384z"/>
</g>
<g>
	<path fill="none" stroke="#000000" d="M67.877,310.121c0,5.5-4.5,10-10,10H16c-5.5,0-10-4.5-10-10v-41.88c0-5.5,4.5-10,10-10
		h41.877c5.5,0,10,4.5,10,10V310.121z"/>
</g>
<g>
	<path fill="none" stroke="#000000" d="M400.001,0C400,0,400,4.5,400,10v53.878c0,5.5,0,14.5,0,20v53.879c0,5.5,0,14.5,0,20v84.484
		c0,5.5,0,14.5,0,20v53.879c0,5.5,0,14.5,0,20V390c0,5.5,0,10,0.001,10s0.001-4.5,0.001-10V10C400.002,4.5,400.002,0,400.001,0z"/>
</g>
<g>
	<path fill="none" stroke="#000000" d="M394,236.241c0,5.5-4.5,10-10,10h-41.879c-5.5,0-10-4.5-10-10v-72.484c0-5.5,4.5-10,10-10
		H384c5.5,0,10,4.5,10,10V236.241z"/>
</g>
<g>
	<path fill="none" stroke="#000000" d="M320.121,236.241c0,5.5-4.5,10-10,10h-41.88c-5.5,0-10-4.5-10-10v-72.484c0-5.5,4.5-10,10-10
		h41.88c5.5,0,10,4.5,10,10V236.241z"/>
</g>
<g>
	<path fill="none" stroke="#000000" d="M394,384c0,5.5-4.5,10-10,10h-41.879c-5.5,0-10-4.5-10-10v-41.879c0-5.5,4.5-10,10-10H384
		c5.5,0,10,4.5,10,10V384z"/>
</g>
<g>
	<path fill="none" stroke="#000000" d="M320.121,310.121c0,5.5-4.5,10-10,10h-41.88c-5.5,0-10-4.5-10-10v-41.88c0-5.5,4.5-10,10-10
		h41.88c5.5,0,10,4.5,10,10V310.121z"/>
</g>
<g>
	<path fill="none" stroke="#000000" d="M394,310.12c0,5.5-4.5,10-10,10h-41.879c-5.5,0-10-4.5-10-10v-41.878c0-5.5,4.5-10,10-10H384
		c5.5,0,10,4.5,10,10V310.12z"/>
</g>
<g>
	<path fill="none" stroke="#000000" d="M320.12,384c0,5.5-4.5,10-10,10h-41.878c-5.5,0-10-4.5-10-10v-41.879c0-5.5,4.5-10,10-10
		h41.878c5.5,0,10,4.5,10,10V384z"/>
</g>
<g>
	<path fill="none" stroke="#000000" d="M242.242,0c5.5,0,14.5,0,20,0h53.879c5.5,0,14.5,0,20,0H390c5.5,0,10,0,10-0.001
		s-4.5-0.001-10-0.001H10c-5.5,0-10,0-10,0.001S4.5,0,10,0h53.878c5.5,0,14.5,0,20,0H242.242z"/>
</g>
<g>
	<path fill="none" stroke="#000000" d="M246.241,57.877c0,5.5-4.5,10-10,10H163.76c-5.5,0-10-4.5-10-10V16c0-5.5,4.5-10,10-10
		h72.481c5.5,0,10,4.5,10,10V57.877z"/>
</g>
<g>
	<path fill="none" stroke="#000000" d="M73.878,0c0,0-4.5,0-10,0H10C4.5,0,0,0,0,0c0,0,4.5,0,10,0h53.878
		C69.378,0,73.878,0,73.878,0z"/>
</g>
<g>
	<path fill="none" stroke="#000000" d="M246.241,131.756c0,5.5-4.5,10-10,10H163.76c-5.5,0-10-4.5-10-10V89.879c0-5.5,4.5-10,10-10
		h72.481c5.5,0,10,4.5,10,10V131.756z"/>
</g>
<g>
	<path fill="none" stroke="#000000" d="M141.757,131.757c0,5.5-4.5,10-10,10H89.879c-5.5,0-10-4.5-10-10V89.879c0-5.5,4.5-10,10-10
		h41.878c5.5,0,10,4.5,10,10V131.757z"/>
</g>
<g>
	<path fill="none" stroke="#000000" d="M141.757,57.877c0,5.5-4.5,10-10,10H89.879c-5.5,0-10-4.5-10-10V16.001c0-5.5,4.5-10,10-10
		h41.878c5.5,0,10,4.5,10,10V57.877z"/>
</g>
<g>
	<path fill="none" stroke="#000000" d="M67.877,131.757c0,5.5-4.5,10-10,10H16.001c-5.5,0-10-4.5-10-10V89.879c0-5.5,4.5-10,10-10
		h41.876c5.5,0,10,4.5,10,10V131.757z"/>
</g>
<g>
	<path fill="none" stroke="#000000" d="M67.88,57.88c0,5.5-4.5,10-10,10H16c-5.5,0-10-4.5-10-10V16c0-5.5,4.5-10,10-10h41.88
		c5.5,0,10,4.5,10,10V57.88z"/>
</g>
<g>
	<path fill="none" stroke="#000000" d="M320.121,57.877c0,5.5-4.5,10-10,10h-41.88c-5.5,0-10-4.5-10-10V16c0-5.5,4.5-10,10-10h41.88
		c5.5,0,10,4.5,10,10V57.877z"/>
</g>
<g>
	<path fill="none" stroke="#000000" d="M394,57.878c0,5.5-4.5,10-10,10h-41.879c-5.5,0-10-4.5-10-10V16c0-5.5,4.5-10,10-10H384
		c5.5,0,10,4.5,10,10V57.878z"/>
</g>
<g>
	<path fill="none" stroke="#000000" d="M320.121,131.757c0,5.5-4.5,10-10,10h-41.88c-5.5,0-10-4.5-10-10V89.877c0-5.5,4.5-10,10-10
		h41.88c5.5,0,10,4.5,10,10V131.757z"/>
</g>
<g>
	<path fill="none" stroke="#000000" d="M394,131.757c0,5.5-4.5,10-10,10h-41.879c-5.5,0-10-4.5-10-10V89.878c0-5.5,4.5-10,10-10H384
		c5.5,0,10,4.5,10,10V131.757z"/>
</g>
</svg>
