<?xml version="1.0" encoding="utf-8"?>
<!-- Generator: Adobe Illustrator 13.0.0, SVG Export Plug-In . SVG Version: 6.00 Build 14948)  -->
<!DOCTYPE svg PUBLIC "-//W3C//DTD SVG 1.0//EN" "http://www.w3.org/TR/2001/REC-SVG-20010904/DTD/svg10.dtd">
<svg version="1.0" id="Layer_2" xmlns="http://www.w3.org/2000/svg" xmlns:xlink="http://www.w3.org/1999/xlink" x="0px" y="0px"
	 width="400px" height="400px" viewBox="0 0 400 400" enable-background="new 0 0 400 400" xml:space="preserve">
<path d="M116.5,60.5c0,1.655,1.342,3,3,3s3-1.344,3-3V36.377h12.005L119.547,10.47L104.59,36.377h11.91V60.5z"/>
<path d="M159.09,37.119H171v24.123c0,1.656,1.343,3.001,2.999,3.001c1.652,0,3.001-1.345,3.001-3.001V37.119h12.004l-14.958-25.907
	L159.09,37.119z"/>
<path d="M211.589,37.119h11.909v24.124c0,1.657,1.344,3,3.002,3c1.651,0,3-1.343,3-3V37.119h12.004l-14.957-25.907L211.589,37.119z"
	/>
<path d="M276.499,61.241c0,1.657,1.344,3,3.001,3c1.651,0,3.001-1.343,3.001-3V37.119h12.003l-14.957-25.907l-14.958,25.907h11.91
	V61.241z"/>
<path d="M339,122h24.119v12.004l25.907-14.958l-25.907-14.958V116H339c-1.657,0-3.005,1.341-3.005,2.999
	C335.995,120.658,337.343,122,339,122z"/>
<path d="M362.381,170.5h-24.124c-1.658,0-2.999,1.343-2.999,2.999c0,1.658,1.341,3.001,2.999,3.001h24.124v12.004l25.903-14.958
	l-25.903-14.958V170.5z"/>
<path d="M362.381,223h-24.124c-1.658,0-2.999,1.344-2.999,2.999c0,1.657,1.341,3,2.999,3h24.124v12.005l25.903-14.957
	l-25.903-14.957V223z"/>
<path d="M362.381,275.999h-24.124c-1.658,0-2.999,1.344-2.999,3.001c0,1.654,1.341,2.999,2.999,2.999h24.124v12.005l25.903-14.957
	l-25.903-14.957V275.999z"/>
<path d="M283.499,338.5c0-1.658-1.347-3.001-3-3.001c-1.656,0-2.999,1.343-2.999,3.001v24.123h-12.005l14.958,25.906l14.957-25.906
	h-11.911V338.5z"/>
<path d="M228.999,337.757c0-1.655-1.347-2.999-2.999-2.999c-1.657,0-3,1.344-3,2.999v24.124h-12.005l14.958,25.907l14.957-25.907
	h-11.911V337.757L228.999,337.757z"/>
<path d="M176.5,337.757c0-1.655-1.343-2.999-3-2.999s-3,1.344-3,2.999v24.124h-12.003l14.958,25.907l14.958-25.907H176.5V337.757z"
	/>
<path d="M123.5,337.757c0-1.655-1.343-2.999-3-2.999s-3,1.344-3,2.999v24.124h-12.003l14.958,25.907l14.958-25.907H123.5V337.757z"
	/>
<path d="M60.999,276.999H36.877v-12.004L10.97,279.953l25.907,14.957V283h24.122c1.653,0,3.001-1.344,3.001-3
	C64,278.343,62.656,276.999,60.999,276.999z"/>
<path d="M61.742,222.499H37.619v-12.004l-25.907,14.958l25.907,14.957V228.5h24.123c1.653,0,3-1.346,3-3.001
	S63.399,222.499,61.742,222.499z"/>
<path d="M61.742,170H37.619v-12.005l-25.907,14.958l25.907,14.958V176h24.123c1.652,0,3.001-1.345,3.001-3.001
	S63.398,170,61.742,170z"/>
<path d="M37.619,123h24.123c1.652,0,3-1.342,3-3s-1.348-3-3-3H37.619v-12.004l-25.907,14.958l25.907,14.958V123z"/>
<path d="M159.955,95.119h29.591v22.123c0,1.656,3.336,5.001,7.451,5.001c4.109,0,7.456-3.345,7.456-5.001V95.119h29.82
	l-37.163-25.907L159.955,95.119z"/>
<path d="M303.881,159.955v29.591h-22.123c-1.656,0-5.001,3.336-5.001,7.451c0,4.112,3.345,7.456,5.001,7.456h22.123v29.822
	l25.904-37.165L303.881,159.955z"/>
<path d="M239.045,303.881h-29.591v-22.123c0-1.656-3.337-5.001-7.451-5.001c-4.112,0-7.456,3.345-7.456,5.001v22.123h-29.823
	l37.163,25.907L239.045,303.881z"/>
<path d="M95.119,239.045v-29.591h22.123c1.653,0,5.001-3.337,5.001-7.451c0-4.112-3.348-7.456-5.001-7.456H95.119v-29.823
	l-25.907,37.163L95.119,239.045z"/>
<path d="M227.807,168.089l-8.74,6.982v31.543c0,5.795-0.188,9.961-0.562,12.5s-1.115,4.623-2.222,6.25
	c-2.8,4.167-8.236,6.25-16.309,6.25c-8.529,0-14.486-2.083-17.871-6.25c-2.702-3.287-4.053-9.586-4.053-18.896v-32.422l-6.641-5.957
	h23.047l-6.641,6.494v31.934l0.098,7.52c0,4.851,1.009,8.293,3.027,10.327c2.018,2.035,5.42,3.052,10.205,3.052
	c5.273,0,8.902-1.546,10.889-4.639c1.595-2.506,2.393-7.877,2.393-16.113l0.195-31.592l-7.617-6.982H227.807z M196.508,170.726
	l-4.785,4.834v36.279l-0.049,3.369l1.514,6.201c0.748,1.237,2.164,2.734,4.248,4.492l0.098,0.439
	c-2.734-1.106-4.623-2.718-5.664-4.834c-1.042-2.115-1.563-5.387-1.563-9.814v-36.621l5.518-5.371L196.508,170.726z
	 M229.467,171.409l-6.641,5.518v30.322c0,9.929-0.781,16.406-2.344,19.434c-3.19,6.12-9.424,9.18-18.701,9.18
	c-8.008,0-14.03-2.002-18.066-6.006l0.391,0.195l1.709,0.977c4.004,2.344,9.146,3.516,15.43,3.516
	c8.984,0,14.941-2.832,17.871-8.496c1.563-3.06,2.344-9.212,2.344-18.457v-31.25l7.275-5.957L229.467,171.409z"/>
<path d="M168.458,221.189v-50.684c2.67,2.019,4.77,3.459,6.299,4.321c1.53,0.862,3.988,1.962,7.373,3.296l0.977,0.391
	c-4.427,2.148-7.291,4.272-8.594,6.372c-1.302,2.1-1.953,5.64-1.953,10.62l0.049,2.783l-0.049,4.736l-0.049,1.807h22.852v-2.979
	h-20.166l-0.049-1.416c-0.098-2.018-0.146-4.166-0.146-6.445c0-6.641,1.726-10.791,5.176-12.451c-1.529,1.596-2.563,3.328-3.101,5.2
	s-0.806,4.761-0.806,8.667c0,1.4,0.082,3.142,0.244,5.225h18.848v-7.373l-8.252-7.813h20.459l-8.105,8.203v11.182h24.609l6.348-6.25
	v23.975l-6.348-7.959h-20.996c0,2.507,0.944,4.704,2.832,6.592l-1.025,0.928c-2.083-1.888-3.125-4.395-3.125-7.52h-2.295
	c-0.064,0.684-0.098,1.172-0.098,1.465c0,3.027,1.237,5.648,3.711,7.861l-0.781,0.342c-4.231-1.465-6.543-4.688-6.934-9.668h-20.605
	L168.458,221.189z M171.437,166.795c5.437,4.655,10.417,7.585,14.941,8.789l-0.684,1.025c-5.11-1.236-10.14-4.215-15.088-8.936
	L171.437,166.795z M188.82,181.883h21.094l-0.732,1.27h-21.094L188.82,181.883z M203.566,190.623v10.01h20.898l10.645-8.594v28.271
	l-1.318,1.221v-26.758l-8.74,7.08h-22.803v-9.814L203.566,190.623z"/>
<path d="M169.467,223.191v-23.34l6.689,6.885h52.197v-0.391l0.146-1.758v-0.439h-51.855l-5.322-5.273l1.074-0.684l4.834,4.736h51.27
	c0.131-1.465,0.195-2.864,0.195-4.199c0-5.176-1.147-9.09-3.442-11.743s-6.079-4.435-11.353-5.347
	c8.887-3.06,14.958-6.201,18.213-9.424v50.977l-5.518-6.738h-50.928L169.467,223.191z M231.723,167.43l4.395,2.197v50.977
	l-1.318,1.221v-51.66l-3.076-1.416c-4.395,3.581-9.293,6.445-14.697,8.594l-0.537,0.195l0.586-1.563l0.83-0.342
	c4.818-2.181,9.262-4.785,13.33-7.813L231.723,167.43z"/>
<path d="M171.028,228.707c-5.11-7.747-7.666-16.438-7.666-26.074c0-6.998,1.571-12.711,4.712-17.139
	c3.142-4.427,7.202-6.641,12.183-6.641c6.641,0,11.084,3.842,13.33,11.523h0.537c0.195-0.781,0.456-1.725,0.781-2.832
	c-0.846-3.613-2.571-6.453-5.176-8.521c-2.604-2.066-5.745-3.101-9.424-3.101c-4.622,0-8.724,1.904-12.305,5.713h-0.293l0.439-0.537
	c3.288-4.264,7.504-6.396,12.646-6.396c7.097,0,12.045,3.679,14.844,11.035c1.465-3.189,3.549-5.672,6.25-7.446
	c2.702-1.773,5.746-2.661,9.131-2.661c4.851,0,8.732,1.758,11.646,5.273c2.914,3.516,4.37,8.203,4.37,14.063v34.961l-5.762-6.738
	h-21.143c0,1.921,0.195,4.167,0.586,6.738l-1.416,0.391c-0.293-2.896-0.439-5.273-0.439-7.129h-2.588v1.221
	c0,1.823,0.131,4.118,0.391,6.885l-4.688-2.148l0.049-0.781c0.098-1.27,0.146-2.229,0.146-2.881c0-0.977,0.049-1.741,0.146-2.295
	h-18.359L171.028,228.707z M170.295,213.424h22.021c-0.032-0.357-0.049-0.602-0.049-0.732l0.049-0.879c0-0.13,0-0.406,0-0.83
	h-19.971c-1.302-2.799-1.953-5.533-1.953-8.203c0-3.06,0.554-5.477,1.66-7.251c1.107-1.773,2.995-3.279,5.664-4.517l-0.781,1.367
	c-3.678,2.441-5.518,5.925-5.518,10.449c0,2.539,0.717,4.818,2.148,6.836h18.75v-2.051c0-6.217-1.033-10.848-3.101-13.892
	c-2.066-3.043-5.232-4.565-9.497-4.565c-3.743,0-6.763,1.262-9.058,3.784c-2.295,2.523-3.442,5.835-3.442,9.937
	C167.219,206.49,168.244,210.006,170.295,213.424z M196.321,213.424h26.904v-2.441H199.25c-0.162-2.311-0.244-3.971-0.244-4.98
	c0-5.403,0.505-9.317,1.514-11.743c1.01-2.425,2.93-4.354,5.762-5.786v0.586c-2.246,1.596-3.8,3.598-4.663,6.006
	c-0.862,2.409-1.294,5.941-1.294,10.596l0.098,4.004h22.803v-1.563l-0.244-7.08c-0.65-9.18-5.11-13.77-13.379-13.77
	c-5.176,0-8.716,1.514-10.62,4.541s-2.856,8.691-2.856,16.992C196.125,209.6,196.191,211.146,196.321,213.424z M199.739,176.852
	c2.702-3.482,6.804-5.225,12.305-5.225c5.534,0,10.107,1.938,13.721,5.811c3.516,3.776,5.273,9.326,5.273,16.65v33.203l-1.318,0.83
	v-30.811c0-6.705-0.684-11.539-2.051-14.502c-3.06-6.575-8.382-9.863-15.967-9.863c-4.231,0-8.072,1.498-11.523,4.492
	L199.739,176.852z"/>
<path d="M168.552,224.385c-4.459-7.715-6.689-16.016-6.689-24.902c0-6.9,1.498-12.589,4.492-17.065
	c2.995-4.476,6.804-6.714,11.426-6.714c3.776,0,7.121,1.465,10.034,4.395c2.914,2.93,5.021,6.934,6.323,12.012
	c6.186-2.246,12.207-5.298,18.066-9.155s10.352-7.723,13.477-11.597l0.244,0.732c1.66,4.851,4.004,9.604,7.031,14.258l0.488,0.732
	l-1.563,0.244c-12.598,2.084-23.274,4.997-32.031,8.74l-0.488,0.195c1.042,2.246,1.872,5.258,2.49,9.033l0.049,0.391h18.262
	l9.18-8.594v25.244l-1.318,0.781v-23.242l-7.52,7.08h-19.678l-0.146-1.025c-0.391-3.711-1.123-6.819-2.197-9.326
	c-0.391,0.195-0.635,0.31-0.732,0.342l-1.416,0.488c-0.098,0.033-0.293,0.114-0.586,0.244c0.586,2.019,1.221,5.827,1.904,11.426
	l0.098,0.537h21.777l5.811-5.566v21.582l-5.811-6.348h-16.406l0.049,0.391c0.424,1.889,0.896,3.598,1.416,5.127l0.146,0.391
	l-0.977,0.439c-0.553-1.432-0.928-2.555-1.123-3.369l-0.635-2.588l-0.098-0.391h-2.539c0,1.921,0.424,4.313,1.27,7.178l0.195,0.537
	c-0.455-0.064-1.514-0.391-3.174-0.977c-0.13-0.064-0.862-0.293-2.197-0.684c-0.098-0.032-0.244-0.081-0.439-0.146
	c0.098-1.465,0.146-2.604,0.146-3.418c0-0.879-0.049-1.692-0.146-2.441h-24.023c-0.911,1.498-1.676,3.044-2.295,4.639
	L168.552,224.385z M167.282,209.639h26.318c0-0.943-0.081-1.839-0.244-2.686h-24.023c-0.488-1.79-0.732-3.938-0.732-6.445
	c0-6.348,2.084-10.66,6.25-12.939c-1.953,2.409-3.296,4.525-4.028,6.348c-0.732,1.823-1.099,4.004-1.099,6.543
	c0,1.986,0.195,3.728,0.586,5.225h23.047l-0.098-0.537c-1.172-6.412-3.019-11.173-5.542-14.282
	c-2.522-3.108-5.802-4.663-9.839-4.663c-3.613,0-6.6,1.4-8.96,4.199c-2.359,2.8-3.54,6.332-3.54,10.596
	C165.378,204.414,166.013,207.295,167.282,209.639z M196.579,186.055c6.706-2.051,13.266-5.68,19.678-10.889
	c4.004-3.255,7.602-7.373,10.791-12.354c1.986,7.455,5.013,14.453,9.082,20.996l0.293,0.439l-0.781,0.977
	c-4.069-6.217-7.063-12.842-8.984-19.873c-6.25,9.375-16.243,16.748-29.98,22.119l-0.83,0.293
	c-3.775-9.961-9.537-14.941-17.285-14.941c-3.189,0-6.673,1.286-10.449,3.857c2.995-3.287,6.804-4.932,11.426-4.932
	C187.026,171.748,192.706,176.518,196.579,186.055z"/>
<path d="M174,167.221h19.238c9.407,0,16.373,1.807,20.898,5.42c6.738,5.339,10.107,13.705,10.107,25.098
	c0,11.816-2.946,20.361-8.838,25.635c-2.67,2.377-5.656,4.053-8.96,5.029c-3.305,0.977-7.69,1.465-13.159,1.465h-20.752l6.689-5.127
	v-51.904L174,167.221z M188.795,171.322v54.785h2.686v-51.563c1.692-0.26,3.238-0.391,4.639-0.391c2.669,0,4.776,0.269,6.323,0.806
	c1.546,0.537,3.101,1.522,4.663,2.954c-3.451-1.627-7.146-2.441-11.084-2.441c-0.847,0-1.953,0.065-3.32,0.195v50.439
	c3.646,0,6.412-0.301,8.301-0.903c1.888-0.602,3.678-1.766,5.371-3.491c4.72-4.785,7.08-12.825,7.08-24.121
	c0-11.035-2.556-18.57-7.666-22.607c-3.093-2.441-7.992-3.662-14.697-3.662H188.795z M175.563,233.871l-0.732-1.318h17.871
	c8.789,0,15.462-1.221,20.02-3.662c9.798-5.208,14.697-15.283,14.697-30.225c0-9.993-2.197-17.415-6.592-22.266l-1.953-2.148
	c-0.065-0.064-0.261-0.293-0.586-0.684c6.9,4.33,10.352,12.614,10.352,24.854c0,12.858-3.418,22.331-10.254,28.418
	c-5.241,4.688-13.803,7.031-25.684,7.031H175.563z"/>
</svg>
