<?xml version="1.0" encoding="utf-8"?>
<!-- Generator: Adobe Illustrator 13.0.0, SVG Export Plug-In . SVG Version: 6.00 Build 14948)  -->
<!DOCTYPE svg PUBLIC "-//W3C//DTD SVG 1.1//EN" "http://www.w3.org/Graphics/SVG/1.1/DTD/svg11.dtd">
<svg version="1.1" id="Layer_3" xmlns="http://www.w3.org/2000/svg" xmlns:xlink="http://www.w3.org/1999/xlink" x="0px" y="0px"
	 width="400px" height="400px" viewBox="0 0 400 400" enable-background="new 0 0 400 400" xml:space="preserve">
<g>
	<path fill="#FF88CC" d="M372.859,394.998H28.522c61.923-23.8,119.493-57.025,171.496-99.008 C252.432,338.095,310.447,371.318,372.859,394.998L372.859,394.998z"/>
</g>
<g>
	<path fill="#FF88CC" d="M394.998,371.466c-23.814-61.865-57.044-119.385-99.014-171.342
		c41.941-51.845,75.165-109.225,99.014-170.947V371.466L394.998,371.466z"/>
</g>
<g>
	<path fill="#FF88CC" d="M391.626,391.199c-66.571-23.313-128.3-57.483-183.706-101.69c29.53-24.627,56.931-51.997,81.58-81.496
		C333.817,263.237,368.131,324.795,391.626,391.199L391.626,391.199z"/>
</g>
<g>
	<path fill="#FF88CC" d="M5.002,374.786V31.199c24.099,61.445,57.489,118.513,99.511,170.021
		C62.17,253.818,28.768,312.089,5.002,374.786L5.002,374.786z"/>
</g>
<g>
	<path fill="#FF88CC" d="M200.751,104.72C148.566,62.413,90.76,28.953,28.524,5.001h344.811
		C310.977,28.919,253.044,62.383,200.751,104.72L200.751,104.72z"/>
</g>
<g>
	<path fill="#FF88CC" d="M110.978,193.318C65.75,137.521,30.774,75.138,6.913,7.712c67.496,23.637,129.99,58.417,185.954,103.492
		C163.215,136,135.709,163.58,110.978,193.318L110.978,193.318z"/>
</g>
<g>
	<path fill="#FF88CC" d="M9.584,391.334c23.38-66.024,57.467-127.268,101.445-182.257c24.522,29.099,51.755,56.123,81.071,80.448
		C137.058,333.662,75.729,367.869,9.584,391.334L9.584,391.334z"/>
</g>
<g>
	<path fill="#FF88CC" d="M289.504,192.23c-24.463-29.318-51.623-56.529-80.873-81.021C263.853,66.793,325.429,32.39,391.871,8.82
		C368.327,75.32,333.931,136.949,289.504,192.23L289.504,192.23z"/>
</g>
<g>
	<path fill="#FF88CC" d="M200.003,283.084c-29.929-24.673-57.67-52.198-82.549-81.906c25.056-30.32,53.045-58.387,83.293-83.524
		c29.855,24.846,57.516,52.556,82.313,82.466C258.059,230.226,230.148,258.106,200.003,283.084L200.003,283.084z"/>
</g>
</svg>
